<svg width="375" height="605" viewBox="0 0 375 605" fill="none" xmlns="http://www.w3.org/2000/svg">
<rect width="375" height="605" fill="url(#paint0_linear)" fill-opacity="0.7"/>
<path d="M383.797 321.717C383.013 321.669 351.383 323.455 291.284 323.569C288.102 322.144 288.379 316.161 291.284 313.027C295.988 307.953 301.522 311.46 304.981 313.882C303.274 312.315 300.125 302.208 306.779 295.648C313.282 289.238 325.272 292.989 327.393 298.07C327.67 294.698 325.761 282.599 336.386 281.118C347.011 279.636 354.095 292.514 351.051 298.07C352.711 295.743 356.534 290.093 363.503 294.508C370.697 299.067 366.039 307.139 363.503 309.039C364.563 308.279 368.649 307.443 376.508 310.178C384.366 312.913 387.071 319.01 383.797 321.717Z" fill="url(#paint1_linear)"/>
<circle cx="187.5" cy="250.5" r="148.5" fill="url(#paint2_linear)"/>
<path d="M90.4592 173.936L88.9232 173.504V171.848L92.9072 171.344H92.9792L93.5792 171.824V172.76L93.5552 173.336C94.1152 172.808 94.8432 172.352 95.7392 171.968C96.6352 171.584 97.5392 171.392 98.4512 171.392C99.4272 171.392 100.187 171.576 100.731 171.944C101.291 172.296 101.691 172.856 101.931 173.624C102.171 174.392 102.291 175.432 102.291 176.744V183.368L103.755 183.56V185H97.5632V183.56L98.8592 183.368V176.744C98.8592 175.912 98.8032 175.264 98.6912 174.8C98.5792 174.32 98.3712 173.976 98.0672 173.768C97.7792 173.544 97.3632 173.432 96.8192 173.432C95.9072 173.432 94.9312 173.824 93.8912 174.608V183.344L95.3312 183.56V185H89.0672V183.56L90.4592 183.344V173.936ZM104.035 171.68H110.227V173.048L108.547 173.336L110.323 179.72L110.899 182.336L111.427 179.696L113.587 171.68H116.491L118.867 179.696L119.443 182.336L120.019 179.72L121.699 173.36L119.947 173.048V171.68H125.083V173.048L123.859 173.312L120.211 185.192H117.451L115.027 177.416L114.475 174.56L114.043 177.416L111.811 185.192H109.027L105.187 173.312L104.035 173.048V171.68ZM127.383 168.968L125.583 168.656V167.168H129.207C129.543 167.168 130.063 167.152 130.767 167.12C131.695 167.056 132.535 167.024 133.287 167.024C134.951 167.024 136.263 167.232 137.223 167.648C138.199 168.048 138.887 168.632 139.287 169.4C139.703 170.152 139.911 171.112 139.911 172.28C139.911 174.296 139.279 175.864 138.015 176.984C136.767 178.104 135.031 178.664 132.807 178.664C131.927 178.664 131.295 178.64 130.911 178.592V183.32L134.127 183.56V185H125.487V183.56L127.383 183.32V168.968ZM130.887 177.056C131.255 177.136 131.879 177.176 132.759 177.176C133.831 177.176 134.687 176.808 135.327 176.072C135.983 175.32 136.311 174.08 136.311 172.352C136.311 171.008 136.015 170.032 135.423 169.424C134.847 168.8 133.959 168.488 132.759 168.488C132.311 168.488 131.847 168.52 131.367 168.584C131.143 168.616 130.983 168.632 130.887 168.632V177.056ZM142.867 167.456L141.091 167.144V165.848L145.531 165.32H145.579L146.227 165.776V183.368L147.979 183.56V185H141.187V183.56L142.867 183.344V167.456ZM160.455 185.24C159.927 185.24 159.543 185.128 159.303 184.904C159.063 184.68 158.943 184.344 158.943 183.896V183.248C158.511 183.776 157.903 184.248 157.119 184.664C156.335 185.064 155.551 185.264 154.767 185.264C153.231 185.264 152.135 184.872 151.479 184.088C150.823 183.288 150.495 181.976 150.495 180.152V173.384L149.295 173.048V171.68L153.375 171.368H153.399L153.879 171.704V180.152C153.879 181.32 154.023 182.136 154.311 182.6C154.599 183.064 155.135 183.296 155.919 183.296C156.863 183.296 157.743 182.928 158.559 182.192V173.384L156.951 173.024V171.68L161.295 171.368H161.343L161.919 171.704V183.512H163.263L163.239 184.88C163.175 184.896 162.879 184.96 162.351 185.072C161.823 185.184 161.191 185.24 160.455 185.24ZM167.623 183.032C167.751 183.224 168.039 183.408 168.487 183.584C168.951 183.744 169.415 183.824 169.879 183.824C170.631 183.824 171.191 183.672 171.559 183.368C171.943 183.048 172.135 182.632 172.135 182.12C172.135 181.592 171.903 181.168 171.439 180.848C170.975 180.512 170.191 180.104 169.087 179.624L168.415 179.336C167.311 178.872 166.487 178.312 165.943 177.656C165.399 177 165.127 176.152 165.127 175.112C165.127 174.392 165.343 173.752 165.775 173.192C166.207 172.616 166.815 172.168 167.599 171.848C168.383 171.528 169.287 171.368 170.311 171.368C171.063 171.368 171.703 171.416 172.231 171.512C172.775 171.608 173.343 171.736 173.935 171.896C174.255 172.008 174.495 172.072 174.655 172.088V175.232H172.759L172.207 173.408C172.111 173.248 171.895 173.104 171.559 172.976C171.223 172.848 170.839 172.784 170.407 172.784C169.751 172.784 169.223 172.928 168.823 173.216C168.439 173.488 168.247 173.872 168.247 174.368C168.247 174.816 168.383 175.192 168.655 175.496C168.927 175.784 169.223 176.008 169.543 176.168C169.863 176.328 170.455 176.592 171.319 176.96C172.183 177.328 172.895 177.68 173.455 178.016C174.031 178.352 174.503 178.792 174.871 179.336C175.255 179.864 175.447 180.512 175.447 181.28C175.447 182.464 174.983 183.424 174.055 184.16C173.127 184.896 171.791 185.264 170.047 185.264C169.231 185.264 168.495 185.192 167.839 185.048C167.199 184.904 166.455 184.712 165.607 184.472L165.079 184.304V181.136H167.071L167.623 183.032ZM196.372 177.896C196.372 179.24 196.092 180.472 195.532 181.592C194.988 182.712 194.18 183.608 193.108 184.28C192.052 184.936 190.788 185.264 189.316 185.264C188.996 185.264 188.66 185.232 188.308 185.168C187.972 185.12 187.7 185.056 187.492 184.976L187.564 186.968V189.152L189.796 189.44V190.808H182.668V189.44L184.228 189.152V173.936L182.668 173.504V171.848L186.628 171.344H186.676L187.276 171.824V173.168C187.676 172.672 188.22 172.24 188.908 171.872C189.596 171.504 190.348 171.32 191.164 171.32C192.684 171.32 193.932 171.864 194.908 172.952C195.884 174.024 196.372 175.672 196.372 177.896ZM189.916 173.312C189.436 173.312 188.98 173.416 188.548 173.624C188.116 173.832 187.788 174.064 187.564 174.32V183.224C187.676 183.384 187.9 183.52 188.236 183.632C188.588 183.744 188.972 183.8 189.388 183.8C190.428 183.8 191.252 183.352 191.86 182.456C192.484 181.544 192.796 180.12 192.796 178.184C192.796 176.552 192.532 175.336 192.004 174.536C191.476 173.72 190.78 173.312 189.916 173.312ZM198.334 183.584L199.918 183.392V173.936L198.382 173.504V171.848L202.102 171.344H202.174L202.774 171.824V172.352L202.702 174.296H202.774C202.886 173.976 203.15 173.584 203.566 173.12C203.982 172.64 204.502 172.224 205.126 171.872C205.766 171.504 206.454 171.32 207.19 171.32C207.542 171.32 207.846 171.368 208.102 171.464V175.064C207.622 174.728 207.038 174.56 206.35 174.56C205.182 174.56 204.166 174.872 203.302 175.496V183.368L206.086 183.584V185H198.334V183.584ZM215.679 185.264C213.567 185.264 211.991 184.648 210.951 183.416C209.927 182.168 209.415 180.472 209.415 178.328C209.415 176.888 209.679 175.64 210.207 174.584C210.751 173.528 211.511 172.72 212.487 172.16C213.463 171.6 214.591 171.32 215.871 171.32C217.471 171.32 218.703 171.744 219.567 172.592C220.431 173.424 220.879 174.616 220.911 176.168C220.911 177.224 220.847 178.008 220.719 178.52H212.919C212.983 179.976 213.327 181.112 213.951 181.928C214.575 182.728 215.463 183.128 216.615 183.128C217.239 183.128 217.879 183.024 218.535 182.816C219.207 182.608 219.735 182.36 220.119 182.072L220.719 183.392C220.287 183.856 219.583 184.288 218.607 184.688C217.647 185.072 216.671 185.264 215.679 185.264ZM217.551 177.08C217.583 176.632 217.599 176.288 217.599 176.048C217.599 173.92 216.887 172.856 215.463 172.856C214.679 172.856 214.071 173.168 213.639 173.792C213.207 174.416 212.967 175.512 212.919 177.08H217.551ZM225.49 183.032C225.618 183.224 225.906 183.408 226.354 183.584C226.818 183.744 227.282 183.824 227.746 183.824C228.498 183.824 229.058 183.672 229.426 183.368C229.81 183.048 230.002 182.632 230.002 182.12C230.002 181.592 229.77 181.168 229.306 180.848C228.842 180.512 228.058 180.104 226.954 179.624L226.282 179.336C225.178 178.872 224.354 178.312 223.81 177.656C223.266 177 222.994 176.152 222.994 175.112C222.994 174.392 223.21 173.752 223.642 173.192C224.074 172.616 224.682 172.168 225.466 171.848C226.25 171.528 227.154 171.368 228.178 171.368C228.93 171.368 229.57 171.416 230.098 171.512C230.642 171.608 231.21 171.736 231.802 171.896C232.122 172.008 232.362 172.072 232.522 172.088V175.232H230.626L230.074 173.408C229.978 173.248 229.762 173.104 229.426 172.976C229.09 172.848 228.706 172.784 228.274 172.784C227.618 172.784 227.09 172.928 226.69 173.216C226.306 173.488 226.114 173.872 226.114 174.368C226.114 174.816 226.25 175.192 226.522 175.496C226.794 175.784 227.09 176.008 227.41 176.168C227.73 176.328 228.322 176.592 229.186 176.96C230.05 177.328 230.762 177.68 231.322 178.016C231.898 178.352 232.37 178.792 232.738 179.336C233.122 179.864 233.314 180.512 233.314 181.28C233.314 182.464 232.85 183.424 231.922 184.16C230.994 184.896 229.658 185.264 227.914 185.264C227.098 185.264 226.362 185.192 225.706 185.048C225.066 184.904 224.322 184.712 223.474 184.472L222.946 184.304V181.136H224.938L225.49 183.032ZM241.319 185.264C239.207 185.264 237.631 184.648 236.591 183.416C235.567 182.168 235.055 180.472 235.055 178.328C235.055 176.888 235.319 175.64 235.847 174.584C236.391 173.528 237.151 172.72 238.127 172.16C239.103 171.6 240.231 171.32 241.511 171.32C243.111 171.32 244.343 171.744 245.207 172.592C246.071 173.424 246.519 174.616 246.551 176.168C246.551 177.224 246.487 178.008 246.359 178.52H238.559C238.623 179.976 238.967 181.112 239.591 181.928C240.215 182.728 241.103 183.128 242.255 183.128C242.879 183.128 243.519 183.024 244.175 182.816C244.847 182.608 245.375 182.36 245.759 182.072L246.359 183.392C245.927 183.856 245.223 184.288 244.247 184.688C243.287 185.072 242.311 185.264 241.319 185.264ZM243.191 177.08C243.223 176.632 243.239 176.288 243.239 176.048C243.239 173.92 242.527 172.856 241.103 172.856C240.319 172.856 239.711 173.168 239.279 173.792C238.847 174.416 238.607 175.512 238.559 177.08H243.191ZM249.811 173.936L248.275 173.504V171.848L252.259 171.344H252.331L252.931 171.824V172.76L252.907 173.336C253.467 172.808 254.195 172.352 255.091 171.968C255.987 171.584 256.891 171.392 257.803 171.392C258.779 171.392 259.539 171.576 260.083 171.944C260.643 172.296 261.043 172.856 261.283 173.624C261.523 174.392 261.643 175.432 261.643 176.744V183.368L263.107 183.56V185H256.915V183.56L258.211 183.368V176.744C258.211 175.912 258.155 175.264 258.043 174.8C257.931 174.32 257.723 173.976 257.419 173.768C257.131 173.544 256.715 173.432 256.171 173.432C255.259 173.432 254.283 173.824 253.243 174.608V183.344L254.683 183.56V185H248.419V183.56L249.811 183.344V173.936ZM268.835 185.216C267.827 185.216 267.083 184.984 266.603 184.52C266.123 184.056 265.883 183.32 265.883 182.312V173.504H264.323V172.256C264.451 172.208 264.683 172.128 265.019 172.016C265.355 171.888 265.611 171.784 265.787 171.704C266.059 171.496 266.291 171.136 266.483 170.624C266.627 170.288 266.891 169.456 267.275 168.128H269.195L269.291 171.656H272.963V173.504H269.315V180.248C269.315 181.144 269.339 181.776 269.387 182.144C269.435 182.512 269.539 182.752 269.699 182.864C269.859 182.96 270.139 183.008 270.539 183.008C270.939 183.008 271.355 182.968 271.787 182.888C272.219 182.792 272.579 182.68 272.867 182.552L273.323 183.896C272.875 184.232 272.219 184.536 271.355 184.808C270.491 185.08 269.651 185.216 268.835 185.216ZM277.264 183.032C277.392 183.224 277.68 183.408 278.128 183.584C278.592 183.744 279.056 183.824 279.52 183.824C280.272 183.824 280.832 183.672 281.2 183.368C281.584 183.048 281.776 182.632 281.776 182.12C281.776 181.592 281.544 181.168 281.08 180.848C280.616 180.512 279.832 180.104 278.728 179.624L278.056 179.336C276.952 178.872 276.128 178.312 275.584 177.656C275.04 177 274.768 176.152 274.768 175.112C274.768 174.392 274.984 173.752 275.416 173.192C275.848 172.616 276.456 172.168 277.24 171.848C278.024 171.528 278.928 171.368 279.952 171.368C280.704 171.368 281.344 171.416 281.872 171.512C282.416 171.608 282.984 171.736 283.576 171.896C283.896 172.008 284.136 172.072 284.296 172.088V175.232H282.4L281.848 173.408C281.752 173.248 281.536 173.104 281.2 172.976C280.864 172.848 280.48 172.784 280.048 172.784C279.392 172.784 278.864 172.928 278.464 173.216C278.08 173.488 277.888 173.872 277.888 174.368C277.888 174.816 278.024 175.192 278.296 175.496C278.568 175.784 278.864 176.008 279.184 176.168C279.504 176.328 280.096 176.592 280.96 176.96C281.824 177.328 282.536 177.68 283.096 178.016C283.672 178.352 284.144 178.792 284.512 179.336C284.896 179.864 285.088 180.512 285.088 181.28C285.088 182.464 284.624 183.424 283.696 184.16C282.768 184.896 281.432 185.264 279.688 185.264C278.872 185.264 278.136 185.192 277.48 185.048C276.84 184.904 276.096 184.712 275.248 184.472L274.72 184.304V181.136H276.712L277.264 183.032Z" fill="white"/>
<path d="M117.427 202H112.227V219.44C112.227 223.52 110.507 225.52 106.987 225.52C103.467 225.52 101.747 223.52 101.747 219.44V202H96.5472V219.36C96.5472 226.84 100.867 230.32 106.987 230.32C113.107 230.32 117.427 226.84 117.427 219.36V202ZM122.35 202V230H132.79C138.51 230 142.03 227 142.03 221.56C142.03 218 140.47 215.8 137.83 214.72C139.59 213.8 140.59 211.84 140.59 209.56C140.59 204.48 137.35 202 132.59 202H122.35ZM132.19 206.8C134.39 206.8 135.59 207.56 135.59 209.84C135.59 212.12 134.39 212.88 132.31 212.88H127.55V206.8H132.19ZM132.31 217.68C135.55 217.68 136.83 219.04 136.83 221.44C136.83 223.84 135.55 225.2 132.31 225.2H127.55V217.68H132.31ZM170.744 210.16C169.424 204.8 165.224 201.68 159.144 201.68C152.144 201.68 145.904 206.64 145.904 216C145.904 225.36 152.144 230.32 159.144 230.32C165.224 230.32 169.424 227.2 170.744 221.84L166.064 220.64C164.984 223.48 163.024 225.52 159.144 225.52C154.824 225.52 151.184 222.48 151.184 216C151.184 209.52 154.824 206.48 159.144 206.48C163.024 206.48 164.984 208.52 166.064 211.36L170.744 210.16ZM185.514 202V230H202.594V225.2H190.714V202H185.514ZM205.079 219.92C205.079 225.76 208.839 230.32 215.319 230.32C221.799 230.32 225.559 225.76 225.559 219.92C225.559 214.08 221.799 209.52 215.319 209.52C208.839 209.52 205.079 214.08 205.079 219.92ZM210.279 219.92C210.279 216.6 212.119 213.76 215.319 213.76C218.519 213.76 220.359 216.6 220.359 219.92C220.359 223.24 218.519 226.08 215.319 226.08C212.119 226.08 210.279 223.24 210.279 219.92ZM243.819 222.76C242.779 224.88 241.339 226.08 239.099 226.08C235.979 226.08 234.459 223.48 234.459 219.92C234.459 216.36 235.979 213.76 239.099 213.76C241.339 213.76 242.779 214.96 243.819 217.08L248.259 215.28C246.739 211.48 243.579 209.52 239.099 209.52C232.539 209.52 229.259 214.24 229.259 219.92C229.259 225.6 232.539 230.32 239.099 230.32C243.579 230.32 246.739 228.36 248.259 224.56L243.819 222.76ZM256.246 216.08C256.886 214.2 258.326 213.76 259.726 213.76C261.566 213.76 263.246 214.48 263.246 216.72V217.6H259.886C254.806 217.6 251.286 220.2 251.286 224.2C251.286 228.2 253.966 230.32 257.406 230.32C260.286 230.32 262.206 229.16 263.606 227.44L264.126 230H268.206V217.96C268.206 211.52 264.526 209.52 259.726 209.52C255.606 209.52 252.686 211.8 252.046 215.12L256.246 216.08ZM256.486 224.12C256.486 222.32 257.806 221.52 259.926 221.52H263.246V221.92C263.246 224.52 260.846 226.08 258.566 226.08C257.166 226.08 256.486 225.08 256.486 224.12ZM273.12 201.68V230H278.08V201.68H273.12ZM106.432 265H111.632V252.44H122.832V265H128.032V237H122.832V247.64H111.632V237H106.432V265ZM137.867 251.08C138.507 249.2 139.947 248.76 141.347 248.76C143.187 248.76 144.867 249.48 144.867 251.72V252.6H141.507C136.427 252.6 132.907 255.2 132.907 259.2C132.907 263.2 135.587 265.32 139.027 265.32C141.907 265.32 143.827 264.16 145.227 262.44L145.747 265H149.827V252.96C149.827 246.52 146.147 244.52 141.347 244.52C137.227 244.52 134.307 246.8 133.667 250.12L137.867 251.08ZM138.107 259.12C138.107 257.32 139.427 256.52 141.547 256.52H144.867V256.92C144.867 259.52 142.467 261.08 140.187 261.08C138.787 261.08 138.107 260.08 138.107 259.12ZM168.682 257.76C167.642 259.88 166.202 261.08 163.962 261.08C160.842 261.08 159.322 258.48 159.322 254.92C159.322 251.36 160.842 248.76 163.962 248.76C166.202 248.76 167.642 249.96 168.682 252.08L173.122 250.28C171.602 246.48 168.442 244.52 163.962 244.52C157.402 244.52 154.122 249.24 154.122 254.92C154.122 260.6 157.402 265.32 163.962 265.32C168.442 265.32 171.602 263.36 173.122 259.56L168.682 257.76ZM176.774 236.68V265H181.734V255.48L188.854 265H194.934L186.334 254.12L194.414 244.84H188.294L181.734 252.76V236.68H176.774ZM217.34 265C223.94 265 230.38 260.8 230.38 251C230.38 241.2 223.94 237 217.34 237H208.58V265H217.34ZM213.78 260.2V241.8H215.7C220.18 241.8 225.1 243.56 225.1 251C225.1 258.44 220.18 260.2 215.7 260.2H213.78ZM238.96 251.08C239.6 249.2 241.04 248.76 242.44 248.76C244.28 248.76 245.96 249.48 245.96 251.72V252.6H242.6C237.52 252.6 234 255.2 234 259.2C234 263.2 236.68 265.32 240.12 265.32C243 265.32 244.92 264.16 246.32 262.44L246.84 265H250.92V252.96C250.92 246.52 247.24 244.52 242.44 244.52C238.32 244.52 235.4 246.8 234.76 250.12L238.96 251.08ZM239.2 259.12C239.2 257.32 240.52 256.52 242.64 256.52H245.96V256.92C245.96 259.52 243.56 261.08 241.28 261.08C239.88 261.08 239.2 260.08 239.2 259.12ZM253.03 244.84L260.35 263.72L256.87 273.16H261.67L272.07 244.84H267.11L262.71 257.48L258.03 244.84H253.03Z" fill="white"/>
<path d="M110.374 296C113.014 296 115.59 294.32 115.59 290.4C115.59 286.48 113.014 284.8 110.374 284.8H106.87V296H110.374ZM108.95 294.08V286.72H109.718C111.51 286.72 113.478 287.424 113.478 290.4C113.478 293.376 111.51 294.08 109.718 294.08H108.95ZM124.765 291.792C124.765 290.032 123.693 287.808 121.005 287.808C118.237 287.808 117.133 290.064 117.133 291.968C117.133 293.872 118.237 296.128 121.005 296.128C122.957 296.128 124.045 295.2 124.669 293.776L123.069 293.184C122.589 294.016 122.029 294.432 121.117 294.432C119.885 294.432 119.261 293.504 119.213 292.608H124.765V291.792ZM121.005 289.504C122.061 289.504 122.557 290.24 122.733 291.04H119.261C119.405 290.272 119.997 289.504 121.005 289.504ZM132.192 293.104C131.776 293.952 131.2 294.432 130.304 294.432C129.056 294.432 128.448 293.392 128.448 291.968C128.448 290.544 129.056 289.504 130.304 289.504C131.2 289.504 131.776 289.984 132.192 290.832L133.968 290.112C133.36 288.592 132.096 287.808 130.304 287.808C127.68 287.808 126.368 289.696 126.368 291.968C126.368 294.24 127.68 296.128 130.304 296.128C132.096 296.128 133.36 295.344 133.968 293.824L132.192 293.104ZM142.829 284.8L139.549 286.72V288.896L141.693 287.616V296H143.709V284.8H142.829ZM145.685 298.496H147.077L149.557 293.664H146.885L145.685 298.496ZM159.547 296H166.667V294.144H162.731L165.467 290.576C166.139 289.696 166.427 288.816 166.427 287.92C166.427 286.032 165.211 284.672 163.083 284.672C161.211 284.672 159.835 285.952 159.723 287.648L161.579 288C161.707 287.056 162.235 286.528 163.035 286.528C163.947 286.528 164.411 287.088 164.411 288C164.411 288.64 164.219 289.184 163.547 290.032L159.547 295.2V296ZM172.815 284.672C170.143 284.672 168.687 286.816 168.687 290.4C168.687 293.984 170.143 296.128 172.815 296.128C175.487 296.128 176.943 293.984 176.943 290.4C176.943 286.816 175.487 284.672 172.815 284.672ZM172.815 286.528C174.287 286.528 174.959 287.904 174.959 290.4C174.959 292.896 174.287 294.272 172.815 294.272C171.343 294.272 170.671 292.896 170.671 290.4C170.671 287.904 171.343 286.528 172.815 286.528ZM181.766 284.8L178.486 286.72V288.896L180.63 287.616V296H182.646V284.8H181.766ZM188.682 284.672C186.778 284.672 185.466 286.064 185.466 287.728C185.466 288.64 185.834 289.44 186.506 289.968C185.594 290.48 185.034 291.392 185.034 292.656C185.034 294.832 186.73 296.128 188.682 296.128C190.634 296.128 192.33 294.832 192.33 292.656C192.33 291.392 191.754 290.48 190.842 289.968C191.514 289.44 191.898 288.64 191.898 287.728C191.898 286.064 190.586 284.672 188.682 284.672ZM188.682 291.04C189.594 291.04 190.314 291.616 190.314 292.656C190.314 293.696 189.594 294.272 188.682 294.272C187.77 294.272 187.05 293.696 187.05 292.656C187.05 291.616 187.77 291.04 188.682 291.04ZM188.682 286.368C189.498 286.368 190.026 286.928 190.026 287.76C190.026 288.608 189.498 289.184 188.682 289.184C187.866 289.184 187.338 288.608 187.338 287.76C187.338 286.928 187.866 286.368 188.682 286.368ZM193.545 298.496H194.937L197.417 293.664H194.745L193.545 298.496ZM207.422 291.968L204.99 296.128H207.23L210.494 290.288C210.814 289.728 211.038 288.992 211.038 288.32C211.038 286.224 209.406 284.672 207.294 284.672C205.15 284.672 203.55 286.24 203.55 288.32C203.55 290.496 205.118 291.968 207.166 291.968H207.422ZM207.294 290.112C206.334 290.112 205.566 289.472 205.566 288.32C205.566 287.232 206.334 286.528 207.294 286.528C208.238 286.528 209.022 287.232 209.022 288.32C209.022 289.472 208.254 290.112 207.294 290.112ZM218.59 296H220.83L217.038 284.8H214.958L211.166 296H213.406L214.222 293.36H217.774L218.59 296ZM215.998 287.552L217.182 291.44H214.814L215.998 287.552ZM222.354 296H224.434V289.088L226.578 294.976H228.082L230.226 289.088V296H232.306V284.8H229.97L227.33 291.792L224.69 284.8H222.354V296ZM234.782 291.792H240.75V290.064H234.782V291.792ZM246.797 291.968L244.365 296.128H246.605L249.869 290.288C250.189 289.728 250.413 288.992 250.413 288.32C250.413 286.224 248.781 284.672 246.669 284.672C244.525 284.672 242.925 286.24 242.925 288.32C242.925 290.496 244.493 291.968 246.541 291.968H246.797ZM246.669 290.112C245.709 290.112 244.941 289.472 244.941 288.32C244.941 287.232 245.709 286.528 246.669 286.528C247.613 286.528 248.397 287.232 248.397 288.32C248.397 289.472 247.629 290.112 246.669 290.112ZM256.937 291.616C259.305 291.616 260.441 290.16 260.441 288.208C260.441 286.256 259.305 284.8 256.937 284.8H252.713V296H254.793V291.616H256.937ZM256.857 289.696H254.793V286.72H256.857C257.769 286.72 258.329 287.184 258.329 288.208C258.329 289.232 257.769 289.696 256.857 289.696ZM262.182 296H264.262V289.088L266.406 294.976H267.91L270.054 289.088V296H272.134V284.8H269.798L267.158 291.792L264.518 284.8H262.182V296ZM164.592 321C167.232 321 169.808 319.32 169.808 315.4C169.808 311.48 167.232 309.8 164.592 309.8H161.088V321H164.592ZM163.168 319.08V311.72H163.936C165.728 311.72 167.696 312.424 167.696 315.4C167.696 318.376 165.728 319.08 163.936 319.08H163.168ZM172.01 321H174.09V314.088L176.234 319.976H177.738L179.882 314.088V321H181.962V309.8H179.626L176.986 316.792L174.346 309.8H172.01V321ZM188.469 316.616C190.837 316.616 191.973 315.16 191.973 313.208C191.973 311.256 190.837 309.8 188.469 309.8H184.245V321H186.325V316.616H188.469ZM188.389 314.696H186.325V311.72H188.389C189.301 311.72 189.861 312.184 189.861 313.208C189.861 314.232 189.301 314.696 188.389 314.696ZM200.61 309.8L197.33 311.72V313.896L199.474 312.616V321H201.49V309.8H200.61ZM206.86 309.8L203.58 311.72V313.896L205.724 312.616V321H207.74V309.8H206.86ZM214.237 309.672C211.565 309.672 210.109 311.816 210.109 315.4C210.109 318.984 211.565 321.128 214.237 321.128C216.909 321.128 218.365 318.984 218.365 315.4C218.365 311.816 216.909 309.672 214.237 309.672ZM214.237 311.528C215.709 311.528 216.381 312.904 216.381 315.4C216.381 317.896 215.709 319.272 214.237 319.272C212.765 319.272 212.093 317.896 212.093 315.4C212.093 312.904 212.765 311.528 214.237 311.528Z" fill="white"/>
<path d="M80.6314 258.997C79.9232 258.948 51.3516 260.79 -2.93686 260.908C-5.81127 259.438 -5.56131 253.267 -2.93687 250.034C1.31248 244.801 6.31117 248.418 9.43552 250.916C7.89419 249.3 5.04937 238.875 11.0602 232.109C16.9339 225.497 27.765 229.366 29.6813 234.606C29.9312 231.129 28.2065 218.65 37.8045 217.122C47.4024 215.593 53.8011 228.876 51.0517 234.606C52.5513 232.207 56.0047 226.379 62.2993 230.933C68.7979 235.635 64.5905 243.961 62.2993 245.92C63.2575 245.137 66.9484 244.275 74.0469 247.096C81.1454 249.917 83.5891 256.206 80.6314 258.997Z" fill="url(#paint3_linear)"/>
<path d="M137.7 526.176C138.307 525.163 139.432 524.536 140.652 524.533L257.765 524.215C258.607 524.213 259.421 524.509 260.049 525.047L269.008 532.717C269.943 533.517 269.352 535 268.098 535H134.775C133.726 535 133.069 533.914 133.591 533.042L137.7 526.176Z" fill="white"/>
<path d="M260.711 528.57C260.711 529.143 259.052 529.607 257.006 529.607C254.96 529.607 253.302 529.143 253.302 528.57C253.302 527.998 254.96 527.585 257.006 527.585C259.052 527.585 260.711 527.998 260.711 528.57Z" fill="#C1D4F5"/>
<path d="M249.417 526.022H143.337L140.386 532.15L253.419 532.304L249.417 526.022Z" fill="url(#paint4_linear)" fill-opacity="0.5"/>
<g filter="url(#filter0_f)">
<path d="M266.772 501.297H125.326L142.161 527.585H250.458L266.772 501.297Z" fill="url(#paint5_linear)"/>
</g>
<path d="M64.0312 510.06L128.324 459.505H263.974L335.474 510.06H64.0312Z" fill="url(#paint6_linear)"/>
<rect x="213.562" y="452.764" width="2.69422" height="9.43693" fill="#857895"/>
<rect x="215.582" y="454.112" width="39.0662" height="7.41473" fill="#ABB8F9"/>
<path d="M213.562 452.764H252.392L254.602 454.112H215.593L213.562 452.764Z" fill="#8280DC"/>
<path d="M118.984 474.914C120.914 475.409 122.853 474.349 123.315 472.546C123.776 470.743 122.586 468.88 120.656 468.385L110.154 465.691C107.389 464.982 103.616 465.006 103.026 467.606C102.518 469.84 105.435 471.439 107.81 472.048L118.984 474.914Z" fill="#735BA5"/>
<path d="M120.749 414.954C119.143 412.961 115.844 412.116 114.489 412.499C111.493 412.408 108.947 412.042 106.364 414.795C102.607 418.798 103.668 423.754 101.208 430.518C100.044 433.722 96.5807 432.954 95.6564 436.892C94.8814 440.194 95.9319 440.999 97.587 443.388C99.242 445.777 95.9722 446.747 94.7906 449.702C93.6088 452.656 96.7612 455.64 98.4383 456.083C101.833 456.98 100.257 464.337 100.72 462.68C101.185 461.024 107.964 460.944 107.813 458.703C107.638 456.09 108.306 454.045 110.252 453.914C112.198 453.783 113.438 451.7 114.939 448.348C116.439 444.997 117.291 452.566 119.96 454.637C122.629 456.708 123.469 455.527 125.543 459.013C127.202 461.802 130.8 461.952 132.391 461.678C131.414 460.244 129.955 456.891 131.941 454.958C134.423 452.541 135.806 452.573 135.58 449.213C135.388 446.339 132.884 445.018 131.231 444.379C129.579 443.74 129.599 440.613 130.789 437.783C131.979 434.952 129.054 430.773 127.058 430.157C125.371 429.637 124.741 428.188 124.672 425.442C124.603 422.696 122.755 417.444 120.749 414.954Z" fill="#735BA5"/>
<path d="M94.94 457.566C95.8531 460.369 95.6671 463.07 95.4012 465.844C95.215 467.787 90.7268 467.637 91.7286 461.67C92.1695 459.044 92.275 458.249 94.94 457.566L94.94 457.566Z" fill="#DBE5F5"/>
<path d="M88.9535 470.964C87.0935 470.964 85.5857 468.7 85.5857 465.908C85.5857 463.116 87.0935 460.853 88.9535 460.853C90.8135 460.853 92.3213 463.116 92.3213 465.908C92.3213 468.7 90.8135 470.964 88.9535 470.964Z" fill="#FF8C73"/>
<path d="M97.0366 465.234C97.0366 468.399 96.9242 470.964 99.1206 470.964C101.317 470.964 103.098 468.399 103.098 465.234C103.098 462.07 101.317 459.505 99.1206 459.505C96.9242 459.505 97.0366 462.07 97.0366 465.234Z" fill="#FF8C73"/>
<path d="M112.888 449.238L103.446 454.053C103.446 454.053 116.621 473.789 119.862 475.142C123.103 476.496 126.427 474.442 126.382 471.099C126.337 467.756 118.158 457.775 112.888 449.238Z" fill="#8280DC"/>
<path d="M90.6495 462.938C87.6428 461.47 87.3644 464.611 87.7659 466.465L91.9313 468.858C92.8824 468.594 93.8103 467.35 94.0264 465.632L90.6495 462.938Z" fill="#DBE5F5"/>
<path d="M107.213 452.71C104.313 453.663 100.218 450.686 97.825 455.706C95.4319 460.725 103.228 477.169 105.73 478.971C108.232 480.774 113.431 479.59 113.23 475.721L107.213 452.71Z" fill="#8280DC"/>
<path d="M93.7769 464.006C90.9858 465.924 90.3151 467.343 90.6546 470.465L106.466 479.389C110.9 480.204 112.497 476.589 111.786 472.841L93.7769 464.006Z" fill="#8280DC"/>
<path d="M125.758 420.546C125.701 417.522 126.806 415.052 128.023 412.544C128.875 410.788 133.714 412.796 130.628 418.009C129.27 420.303 128.889 421.01 125.758 420.546L125.758 420.546Z" fill="#DBE5F5"/>
<path fill-rule="evenodd" clip-rule="evenodd" d="M116.692 439.117C122.959 435.53 128.058 427.303 130.566 418.899C131.686 415.146 126.086 414.774 125.666 417.32C125.089 420.826 120.829 428.692 114.794 433.466C113.345 431.796 111.196 430.701 108.775 430.575C107.423 430.505 106.122 430.745 104.945 431.232C94.4979 432.145 93.232 447.543 92.3246 459.658C92.1809 461.575 96.66 464.197 96.9515 459.797C97.2888 454.708 97.6913 450.034 98.7577 445.93C98.6835 446.941 98.6268 447.966 98.5891 449.054C98.4169 454.02 102.824 457.84 107.819 457.438L109.103 457.335C114.29 456.918 116.964 451.405 116.455 446.27C116.25 444.199 116.421 442.234 116.637 439.76L116.681 439.251C116.685 439.206 116.689 439.161 116.692 439.117Z" fill="#0C2264"/>
<path d="M115.222 432.542C110.758 432.542 107.139 428.77 107.139 424.116C107.139 419.463 110.758 415.69 115.222 415.69C119.686 415.69 123.305 419.463 123.305 424.116C123.305 428.77 119.686 432.542 115.222 432.542Z" fill="#DBE5F5"/>
<path d="M103.098 420.408H124.651" stroke="#C2C2E1" stroke-width="4"/>
<path d="M124.652 421.082H109.16C109.16 422.103 109.576 424.687 110.544 425.708C111.512 426.73 115.385 426.73 116.354 425.708C117.322 424.687 117.473 423.723 118.843 425.168C119.165 425.849 120.198 426.189 121.747 426.189C123.296 426.189 124.329 425.168 124.652 424.146V421.082Z" fill="url(#paint7_linear)" fill-opacity="0.8"/>
<path d="M116.772 431.565C116.772 431.565 116.262 427.545 113.213 428.492C110.163 429.438 109.025 430.865 107.839 434.725L113.134 436.998C113.872 433.176 113.254 432.551 116.772 431.565Z" fill="#DBE5F5"/>
<path d="M103.098 434.284C103.098 436.502 105.471 440.631 107.924 440.631C110.377 440.631 113.875 438.366 113.875 436.148C113.875 433.93 110.377 432.598 107.924 432.598C105.471 432.598 103.098 432.066 103.098 434.284Z" fill="#DBE5F5"/>
<path fill-rule="evenodd" clip-rule="evenodd" d="M195.504 459.505H202.133L209.132 482.377L185.622 498.152L195.504 459.505ZM183.97 504.618L182.578 510.059H217.603L210.468 486.742L183.97 504.618Z" fill="#DBF2F5"/>
<path d="M185.945 453.505L188.64 448.72L188.303 465.987L185.945 472.986V453.505Z" fill="#ABB8F9"/>
<rect x="168.433" y="450.741" width="5.38845" height="12.1332" fill="#735BA5"/>
<rect x="171.801" y="453.438" width="14.1447" height="18.8739" fill="#DBE5F5"/>
<path d="M165.752 453.454L168.46 450.732V469.677L165.752 471.764V453.454Z" fill="#8280DC"/>
<rect x="144.858" y="453.438" width="20.8802" height="21.5701" fill="#DBE5F5"/>
<path d="M149.285 448.72H170.456L165.835 453.438H144.858L149.285 448.72Z" fill="#ABB8F9"/>
<path d="M169.567 448.72H188.721L187.62 450.742H168.433L169.567 448.72Z" fill="#ABB8F9"/>
<path d="M173.929 450.067L187.966 450.523L186.598 453.438H171.801L173.929 450.067Z" fill="#ABB8F9"/>
<rect x="146.879" y="458.156" width="17.5125" height="2.0222" fill="#91E9EE"/>
<rect x="146.879" y="454.786" width="17.5125" height="2.0222" fill="#91E9EE"/>
<rect x="146.879" y="460.853" width="17.5125" height="2.0222" fill="#91E9EE"/>
<rect x="172.475" y="458.156" width="12.7976" height="2.0222" fill="#91E9EE"/>
<rect x="172.475" y="454.786" width="12.7976" height="2.0222" fill="#91E9EE"/>
<rect x="172.475" y="460.179" width="12.7976" height="2.0222" fill="#91E9EE"/>
<rect x="172.475" y="466.919" width="12.7976" height="2.0222" fill="#91E9EE"/>
<rect x="172.475" y="463.549" width="12.7976" height="2.0222" fill="#91E9EE"/>
<rect x="172.475" y="469.615" width="12.7976" height="2.0222" fill="#91E9EE"/>
<rect x="146.879" y="468.268" width="17.5125" height="2.0222" fill="#CDDCF4"/>
<rect x="146.879" y="464.223" width="17.5125" height="2.0222" fill="#CDDCF4"/>
<rect x="146.879" y="470.964" width="17.5125" height="2.0222" fill="#CDDCF4"/>
<path d="M152.745 462.201H180.557L179.081 465.572H150.247L152.745 462.201Z" fill="#ABB8F9"/>
<path d="M174.94 460.173L175.775 459.567L175.775 463.215L174.94 464.206L174.94 460.173Z" fill="#735BA5"/>
<rect x="156.982" y="460.159" width="17.9655" height="4.06333" fill="#D1EDFF"/>
<path d="M157.914 459.569H175.774L174.95 460.179H156.982L157.914 459.569Z" fill="#8280DC"/>
<path d="M178.931 465.512L180.511 462.212L180.511 481.001L178.931 483.095L178.931 465.512Z" fill="#8280DC"/>
<rect x="150.247" y="465.571" width="28.6823" height="17.5257" fill="#D1EDFF"/>
<rect x="247.913" y="462.51" width="14.133" height="11.1503" fill="#735BA5"/>
<path d="M241.851 459.925L256.129 459.505L262.057 462.557L247.057 463.203L241.851 459.925Z" fill="#D1EDFF"/>
<path fill-rule="evenodd" clip-rule="evenodd" d="M255.233 467.96L243.718 459.825H234.984L253.027 473.448L260.236 471.638L260.292 471.635L274.855 470.91L268.975 467.594L255.233 467.96Z" fill="#D1EDFF"/>
<path d="M235.006 459.875L253.301 471.93V487.14L235.006 472.609V459.875Z" fill="#8280DC"/>
<rect x="212.888" y="437.935" width="19.5331" height="28.9848" fill="#D1EDFF"/>
<path d="M218.276 440.631H218.95V446.023H218.276V440.631Z" fill="#91E9EE"/>
<path d="M220.297 443.327H220.97V448.72H220.297V443.327Z" fill="#FF8C73"/>
<path d="M209.52 440.095L212.887 437.935V466.919L209.52 463.718L209.52 440.095Z" fill="#91E9EE"/>
<path d="M214.235 441.305H214.909V446.697H214.235V441.305Z" fill="#06C1C0"/>
<path d="M215.582 444.001H216.256V449.394H215.582V444.001Z" fill="#735BA5"/>
<path d="M222.991 448.045H223.665V453.437H222.991V448.045Z" fill="#91E9EE"/>
<path d="M224.339 449.394H225.012V454.786H224.339V449.394Z" fill="#E16161"/>
<path d="M218.949 448.045H219.623V453.437H218.949V448.045Z" fill="#06C1C0"/>
<path d="M220.297 450.741H220.97V456.134H220.297V450.741Z" fill="#735BA5"/>
<path d="M228.38 440.631H229.053V446.023H228.38V440.631Z" fill="#06C1C0"/>
<path d="M229.727 443.327H230.4V448.72H229.727V443.327Z" fill="#FBC28E"/>
<path d="M224.339 441.305H225.012V446.697H224.339V441.305Z" fill="#FBC28E"/>
<path d="M225.686 444.001H226.359V449.394H225.686V444.001Z" fill="#735BA5"/>
<rect x="216.255" y="458.83" width="11.4505" height="2.0222" fill="#C2C2E1"/>
<path d="M220.75 457.484L227.893 457.666C228.629 457.685 229.338 457.936 229.91 458.38L231.841 459.878C234.629 462.042 232.376 466.317 228.899 465.459L219.68 463.184C216.359 462.101 217.242 457.394 220.75 457.484Z" fill="#C2C2E1"/>
<path d="M218.336 459.245C218.662 455.96 222.118 458.052 222.28 459.245C222.442 460.438 222.991 475.008 222.991 475.008L219.112 471.24C219.112 471.24 218.011 462.53 218.336 459.245Z" fill="#735BA5"/>
<path d="M216.354 457.819L228.037 465.711L228.113 471.54L216.336 460.632L216.354 457.819Z" fill="#735BA5"/>
<path d="M218.276 461.526L219.93 462.618L220.297 471.637H218.276V461.526Z" fill="#ABB8F9"/>
<path d="M218.276 461.526L219.93 462.618L220.297 471.637H218.276V461.526Z" fill="#ABB8F9"/>
<path d="M219.623 464.897L225.685 470.033V479.727L219.623 472.601V464.897Z" fill="#ABB8F9"/>
<path d="M225.012 468.941L226.359 469.851V479.726L225.012 478.297V468.941Z" fill="#735BA5"/>
<path d="M222.991 467.594L224.338 468.534V477.705L222.991 476.377V467.594Z" fill="#735BA5"/>
<path d="M220.971 465.571L222.318 466.585L222.175 475.008L220.971 473.758V465.571Z" fill="#735BA5"/>
<path d="M219.623 464.897L220.297 465.391V472.986L219.623 472.618V464.897Z" fill="#735BA5"/>
<path d="M220.297 464.897L220.97 465.47V467.594L220.297 466.987V464.897Z" fill="#D1EDFF"/>
<path d="M222.317 466.919L222.991 467.492V469.615L222.317 468.84V466.919Z" fill="#D1EDFF"/>
<path d="M224.339 468.268L225.012 468.887V470.964L224.339 470.344V468.268Z" fill="#D1EDFF"/>
<path d="M213.562 459.505L218.276 463.94V472.312L213.562 466.158V459.505Z" fill="#ABB8F9"/>
<path d="M216.929 462.875L218.276 463.614V471.638L216.929 470.477V462.875Z" fill="#735BA5"/>
<path d="M215.582 461.526L216.256 462.279V469.615L215.582 468.553V461.526Z" fill="#735BA5"/>
<path d="M214.235 460.179L215.582 461.047L215.439 468.268L214.235 467.195V460.179Z" fill="#735BA5"/>
<path d="M213.562 459.505L214.235 459.917V466.246L213.562 465.939V459.505Z" fill="#735BA5"/>
<path d="M213.562 460.179L214.235 460.608V462.201L213.562 461.746V460.179Z" fill="#D1EDFF"/>
<path d="M214.908 461.526L215.582 461.956V463.549L214.908 462.967V461.526Z" fill="#D1EDFF"/>
<path d="M216.255 462.875L216.928 463.34V464.897L216.255 464.433V462.875Z" fill="#D1EDFF"/>
<rect x="226.359" y="468.941" width="13.4711" height="1.34813" fill="#DBE5F5"/>
<path d="M216.225 459.473L219.959 462.655L218.208 463.548L213.86 459.473L216.225 459.473Z" fill="#D1EDFF"/>
<path d="M222.224 464.677L228.015 469.128L226.685 470.069L219.987 464.711L222.224 464.677Z" fill="#D1EDFF"/>
<rect x="225.686" y="468.941" width="14.1447" height="11.4591" fill="#D1EDFF"/>
<rect x="227.706" y="468.941" width="4.71489" height="10.111" fill="#8280DC"/>
<rect x="234.441" y="468.941" width="4.71489" height="10.111" fill="#8280DC"/>
<path d="M222.286 462.342L233.228 462.941L239.861 466.105L227.325 466.095L222.286 462.342Z" fill="#C2C2E1"/>
<rect x="227.267" y="466.046" width="12.5632" height="2.8953" fill="#735BA5"/>
<path d="M216.551 479.614L226.306 491.901L226.306 497.998L216.551 484.738L216.551 479.614Z" fill="#8280DC"/>
<rect x="226.31" y="491.186" width="34.4" height="6.8062" fill="#735BA5"/>
<rect x="228.38" y="493.208" width="30.9836" height="2.0222" fill="#ABB8F9"/>
<rect x="228.38" y="494.557" width="30.9836" height="2.0222" fill="#ABB8F9"/>
<path d="M321.547 482.924C319.905 489.653 323.371 487.563 323.265 489.059C337.257 490.926 338.058 485.035 342.971 470.783C343.026 465.949 337.767 464.95 336.349 466.584C331.536 483.018 333.763 479.806 321.547 482.924Z" fill="#735BA5"/>
<path d="M327.355 484.542C322.414 488.764 326.086 499.837 325.144 500.956C341.215 500.633 352.134 498.413 355.924 479.429C357.312 472.477 351.322 468.287 349.232 475.216C347.576 495.536 334.98 488.832 327.355 484.542Z" fill="#8280DC"/>
<path d="M316.84 487.014C317.191 484.355 318.65 481.824 321.242 482.218C324.97 482.784 330.535 485.285 336.096 488.021C342.407 491.125 341.303 497.032 334.289 497.551C332.706 497.669 331.221 498.337 329.915 499.267C329.485 499.573 329.078 499.835 328.686 500.06C322.282 503.73 315.863 494.426 316.84 487.014Z" fill="#8280DC"/>
<path d="M288.892 478.108L293.908 475.227C293.51 479.73 295.134 479.47 298.051 483.143C297.634 486.267 296.503 486.853 293.035 486.025C290.45 483.12 288.414 483.199 288.892 478.108Z" fill="#FFDBBA"/>
<path d="M335.086 463.663C338.399 461.925 340.28 460.696 341.915 458.847C343.496 457.062 346.373 456.889 347.819 458.843C348.465 459.715 348.681 460.845 348.294 461.84C346.681 465.983 344.234 467.885 339.024 470.14C333.183 472.668 330.726 465.95 335.086 463.663Z" fill="#F3CECA"/>
<path d="M334.613 462.787C337.574 461.322 339.312 460.248 340.766 458.678C342.373 456.942 345.229 456.728 346.702 458.67C347.344 459.517 347.583 460.612 347.233 461.587C345.838 465.476 343.555 467.204 338.649 469.165C333.126 471.372 330.506 464.819 334.613 462.787Z" fill="#FF8C73"/>
<path d="M352.699 470.005C355.769 470.431 357.758 470.529 359.691 470.112C362.204 469.57 364.96 470.97 365.177 473.584C365.269 474.686 364.878 475.789 364.028 476.469C360.784 479.063 357.923 479.236 352.728 478.068C346.855 476.747 348.123 469.37 352.699 470.005Z" fill="#F3CECA"/>
<path d="M352.976 469.272C355.609 469.715 357.378 469.86 359.037 469.572C361.534 469.139 364.288 470.484 364.534 473.103C364.634 474.173 364.288 475.249 363.494 475.928C360.562 478.435 357.931 478.554 353.141 477.305C347.71 475.888 348.751 468.56 352.976 469.272Z" fill="#FF8C73"/>
<rect x="149.573" y="433.891" width="5.38845" height="60.6559" fill="#735BA5"/>
<path d="M143.893 433.891H151.143L152.268 436.587H140.144L143.893 433.891Z" fill="#735BA5"/>
<rect x="140.144" y="436.586" width="12.124" height="57.9697" fill="#8280DC"/>
<path d="M150.92 443.141C150.92 445.477 148.96 447.371 146.542 447.371C144.124 447.371 142.164 445.477 142.164 443.141C142.164 440.805 144.124 438.608 146.542 438.608C148.96 438.608 150.92 440.805 150.92 443.141Z" fill="#F2F2F2"/>
<rect x="146.205" y="446.023" width="0.673556" height="0.674066" fill="#C2C2E1"/>
<path d="M146.205 439.282H146.75V439.956H146.205V439.282Z" fill="#C2C2E1"/>
<path d="M142.838 442.652V443.293H143.511V442.652H142.838Z" fill="#C2C2E1"/>
<path d="M149.573 443.302V442.652H150.247V443.302H149.573Z" fill="#C2C2E1"/>
<path d="M194.395 462.026H203.213L208.172 479.052H207.178H189.986L194.395 462.026Z" fill="#D8D8D8"/>
<path d="M194.393 461.843H203.168L207.195 479.052H191.087L194.393 461.843Z" fill="#F0FFFD"/>
<path d="M195.729 463.713L197.32 463.901L195.421 477.069L193.819 477.122L195.729 463.713Z" fill="#FF8C73"/>
<path d="M202.11 463.723L201.823 465.283L195.633 465.336L195.729 463.73L202.11 463.723Z" fill="#FF8C73"/>
<rect width="1.50716" height="5.43854" transform="matrix(0.00796577 0.999968 -0.999968 0.00797785 201.035 469.245)" fill="#FF8C73"/>
<path d="M204.184 475.553L204.663 477.151L193.816 477.144L194.152 475.533L204.184 475.553Z" fill="#FF8C73"/>
<path d="M196.326 460.853H201.606L202.993 461.844H194.66L196.326 460.853Z" fill="#FF8C73"/>
<path d="M23.3817 499.494C24.2451 503.306 26.7096 505.997 28.8863 505.503C31.0631 505.009 32.1278 501.519 31.2644 497.706C30.4011 493.894 27.9366 491.204 25.7598 491.698C23.583 492.191 22.5183 495.682 23.3817 499.494Z" fill="#F3CECA"/>
<path d="M30.2715 505.34C32.8745 505.41 35.0213 504.11 35.0664 502.435C35.1115 500.76 33.0379 499.346 30.4349 499.276C27.8318 499.205 25.6851 500.506 25.64 502.181C25.5949 503.855 27.6685 505.27 30.2715 505.34Z" fill="#F3CECA"/>
<path d="M114.556 492.668C114.547 491.551 115.349 490.567 116.51 490.27L120.516 489.243C122.538 488.725 124.551 490.077 124.648 492.018C124.735 493.778 123.192 495.241 121.291 495.198L117.14 495.104C115.709 495.072 114.566 493.994 114.556 492.668Z" fill="#857895"/>
<path d="M115.429 493.84C115.596 493.522 116.009 493.391 116.41 493.528L119.521 494.587C120.2 494.818 120.584 495.511 120.34 496.066C120.104 496.605 119.379 496.783 118.763 496.453L115.855 494.896C115.43 494.669 115.241 494.198 115.429 493.84Z" fill="#857895"/>
<path d="M24.7284 498.82C25.5917 502.633 28.0563 505.323 30.233 504.829C32.4098 504.335 33.4745 500.845 32.6111 497.033C31.7477 493.22 29.2832 490.53 27.1065 491.024C24.9297 491.518 23.865 495.008 24.7284 498.82Z" fill="#FF8C73"/>
<path d="M31.5808 495.976C27.9226 496.652 25.3126 499.128 25.7512 501.508C26.1898 503.887 29.5109 505.269 33.1691 504.594C36.8274 503.919 39.4374 501.442 38.9988 499.062C38.5602 496.683 35.2391 495.301 31.5808 495.976Z" fill="#FF8C73"/>
<path d="M29.1984 492.343C30.1202 491.932 32.5052 493.214 34.2385 494.286C35.3329 494.963 35.4154 496.571 34.4671 497.743C33.352 499.121 31.5341 499.577 30.285 498.726C28.746 497.677 26.9525 496.308 26.8185 495.541C26.5809 494.18 27.6793 493.021 29.1984 492.343Z" fill="#282A4B"/>
<path d="M32.934 493.138C36.0513 493.295 50.3778 503.77 57.1177 508.822C59.0617 510.279 59.4275 512.999 57.9528 514.833C56.0931 517.145 52.6944 517.551 50.2308 515.73C43.5236 510.771 31.3276 501.546 29.4209 498.645C26.7684 494.609 28.8238 492.932 32.934 493.138Z" fill="#735BA5"/>
<path d="M50.2215 488.97C50.401 486.404 52.61 484.421 55.258 484.448C58.8635 484.485 61.6902 487.47 61.4271 490.962L59.8681 511.65C59.4398 517.334 52.0511 519.547 48.3943 515.088L50.2215 488.97Z" fill="#735BA5"/>
<path d="M77.2003 515.335C78.8532 514.913 80.524 516.158 80.74 517.974L81.3707 523.275C81.6146 525.325 80.3426 527.177 78.4486 527.531C75.7975 528.025 73.4653 525.411 74.0738 522.626L75.1982 517.481C75.4312 516.415 76.2001 515.591 77.2003 515.335Z" fill="#8280DC"/>
<path d="M8.56333 506.909C9.4267 510.722 11.8912 513.412 14.068 512.918C16.2447 512.424 17.3094 508.934 16.4461 505.121C15.5827 501.309 13.1182 498.619 10.9414 499.113C8.76468 499.606 7.69996 503.097 8.56333 506.909Z" fill="#F3CECA"/>
<path d="M14.1065 512.755C16.7095 512.825 18.8562 511.525 18.9013 509.85C18.9464 508.175 16.8728 506.761 14.2698 506.691C11.6668 506.62 9.52008 507.921 9.47497 509.596C9.42987 511.27 11.5035 512.685 14.1065 512.755Z" fill="#F3CECA"/>
<path d="M9.23618 506.909C10.0996 510.722 12.5641 513.412 14.7408 512.918C16.9176 512.424 17.9823 508.934 17.1189 505.121C16.2556 501.309 13.7911 498.619 11.6143 499.113C9.43753 499.606 8.37282 503.097 9.23618 506.909Z" fill="#FF8C73"/>
<path d="M15.4541 512.755C18.0572 512.825 20.2039 511.525 20.249 509.85C20.2941 508.175 18.2205 506.761 15.6175 506.691C13.0145 506.62 10.8677 507.921 10.8226 509.596C10.7775 511.27 12.8511 512.685 15.4541 512.755Z" fill="#FF8C73"/>
<rect width="13.4778" height="5.38988" transform="matrix(0.591457 0.806336 -0.805909 0.59204 74.3418 507.075)" fill="#8280DC"/>
<path d="M79.7297 516.394C80.1152 516.124 80.6043 516.13 80.881 516.407L83.8282 519.355C84.2905 519.818 84.1598 520.63 83.5446 521.118C82.929 521.607 82.0898 521.563 81.7241 521.023L79.3941 517.586C79.1505 517.226 79.3005 516.694 79.7297 516.394Z" fill="#8280DC"/>
<path d="M108.54 485.793L121.198 490.407L118.855 494.737L106.465 491.493L108.54 485.793Z" fill="#8280DC"/>
<path d="M64.7962 481.542L74.121 479.904C72.4801 495.109 71.5129 501.596 79.5759 512.117C78.1569 515.23 77.0947 516.532 72.4358 514.759C65.1299 503.194 63.5915 495.878 64.7962 481.542Z" fill="#FF8C73"/>
<path d="M80.0088 477.187L77.9119 486.529C92.5989 488.672 96.1985 490.652 108.644 493.074C111.723 491.746 113.037 490.718 111.588 485.965C98.1681 481.888 93.5825 479.876 80.0088 477.187Z" fill="#FF8C73"/>
<path d="M13.5818 502.388C14.3544 501.747 16.9684 502.328 18.9222 502.891C20.1781 503.253 20.7054 504.788 20.106 506.175C19.4025 507.802 17.7607 508.726 16.3094 508.235C14.5522 507.64 12.481 506.81 12.148 506.111C11.5537 504.864 12.3005 503.451 13.5818 502.388Z" fill="#282A4B"/>
<path d="M39.5484 491.938C39.8767 486.687 42.9332 481.995 47.5975 479.581C54.0026 476.267 61.5562 477.966 60.8888 485.16C60.0582 494.111 55.5766 506.271 51.7446 515.828C49.5208 521.374 41.2788 522.247 37.9639 517.28L39.5484 491.938Z" fill="#8280DC"/>
<path d="M44.2855 490.548C42.1518 486.732 42.2848 481.832 45.6702 479.172C53.8304 472.759 65.216 472.103 76.526 475.097C83.1402 476.848 84.3127 481.244 83.7394 485.348C82.9442 491.041 76.9346 493.559 71.2593 493.424C68.0517 493.347 65.7369 493.482 63.8932 493.936C56.3638 495.793 48.136 497.435 44.2855 490.548Z" fill="#FF8C73"/>
<path d="M74.4094 491.836C80.1641 492.197 85.1587 487.218 85.5653 480.716C85.9718 474.214 81.6363 468.651 75.8817 468.29C70.127 467.93 65.1323 472.909 64.7258 479.411C64.3192 485.913 68.6547 491.476 74.4094 491.836Z" fill="#8280DC"/>
<path d="M17.5254 502.74C20.563 501.932 36.7388 507.971 44.4837 510.979C46.7616 511.864 47.8014 514.512 46.804 516.82C45.5478 519.725 42.3094 521.17 39.4333 520.075C31.7608 517.154 17.9293 511.695 15.4179 509.377C11.9067 506.137 13.5019 503.809 17.5254 502.74Z" fill="#8280DC"/>
<path d="M85.4926 477.75C83.2328 480.44 77.2589 478.414 74.5545 477.065C73.9449 476.592 72.3276 475.882 70.7348 476.826C68.7438 478.005 72.8295 479.565 72.3314 481.955C71.8333 484.345 68.3369 490.087 65.421 483.757C62.5051 477.428 66.3023 472.45 70.192 468.782C74.0816 465.114 80.2855 466.247 83.4683 468.309C85.5518 468.44 83.7003 464.598 83.77 463.485C84.0233 459.433 86.3163 464.576 88.4457 466.758C90.5751 468.941 88.3173 474.388 85.4926 477.75Z" fill="#0C2264"/>
<path d="M115.124 492.597L127.346 492.533L112.781 508.037H98.3828L115.124 492.597Z" fill="#FFEFE7"/>
<path d="M115.124 492.597L127.346 492.533L112.781 508.037H98.3828L115.124 492.597Z" fill="#FFEFE7"/>
<path d="M118.095 493.882L125.326 493.882L112.339 507.363H104.445L118.095 493.882Z" fill="#8280DC"/>
<path d="M118.095 493.882L125.326 493.882L112.339 507.363H104.445L118.095 493.882Z" fill="#8280DC"/>
<path d="M108.486 490.998L123.151 478.378L127.244 492.62L112.747 508.037L108.486 490.998Z" fill="#FFEFE7"/>
<path d="M253.302 471.908L274.856 470.964V487.141H253.302V471.908Z" fill="#8280DC"/>
<rect width="4.1898" height="13.5413" transform="matrix(0.0167484 0.99986 -0.999859 0.0167737 275.524 482.311)" fill="#FF8C73"/>
<path d="M258.036 484.434L262.098 482.464L262.057 486.487L258.036 484.434Z" fill="#CDDCF4"/>
<path d="M288.147 490.446C291.609 494.374 294.829 492.044 288.357 494.891C277.34 502.272 275.155 493.831 266.696 485.533C265.09 482.693 267.663 481.728 269.304 482.667C277.41 490.639 279.376 498.348 288.147 490.446Z" fill="#FFDBBA"/>
<path d="M292.43 481.892L297.08 484.615L291.443 494.256C288.962 494.238 287.895 493.717 286.792 491.533L292.43 481.892Z" fill="#735BA5"/>
<path d="M324.72 489.544C323.517 495.449 318.931 500.311 312.868 500.422C300.947 500.641 289.384 496.42 288.586 485.316C288.538 484.644 288.705 483.971 289.014 483.372C290.348 480.785 293.951 480.466 296.722 481.416C303.476 483.732 311.043 478.477 318.137 478.031C323.708 477.68 325.827 484.108 324.72 489.544Z" fill="#ABB8F9"/>
<path d="M300.358 476.007C299.253 481.431 292.502 485.499 287.764 484.533C283.025 483.566 282.093 477.93 283.198 472.506C284.303 467.081 289.04 463.467 293.779 464.434C298.517 465.401 301.463 470.582 300.358 476.007Z" fill="#FFDBBA"/>
<path d="M300.712 493.315C307.275 494.563 305.582 495.209 302.236 499.029C291.827 507.278 285.341 508.402 272.902 505.695C269.139 504.183 270.095 501.343 272.552 501.088C283.991 504.137 290.471 501.771 300.712 493.315Z" fill="#FFDBBA"/>
<path d="M303.88 488.497C307.386 488.79 308.002 489.953 308.383 492.559L301.378 500.336C298.804 499.577 297.759 498.748 296.875 496.274L303.88 488.497Z" fill="#735BA5"/>
<path d="M282.807 466.133C284.438 462.396 289.109 461.873 291.24 462.079C301.627 458.038 305.461 468.738 306.08 474.594L302.15 497.442L290.788 495.124C291.546 489.824 293.3 478.999 294.257 478.094C295.454 476.963 293.609 475.349 292.315 475.773C291.021 476.196 291.29 474.876 291.184 473.617C291.078 472.358 289.319 474.474 288.739 474.356L282.942 473.173C281.667 472.913 280.768 470.805 282.807 466.133Z" fill="#FF8C73"/>
<path d="M216.564 479.617L244.423 477.962L260.698 491.191L226.309 491.894L216.564 479.617Z" fill="#ABB8F9"/>
<defs>
<filter id="filter0_f" x="113.326" y="489.297" width="165.447" height="50.2886" filterUnits="userSpaceOnUse" color-interpolation-filters="sRGB">
<feFlood flood-opacity="0" result="BackgroundImageFix"/>
<feBlend mode="normal" in="SourceGraphic" in2="BackgroundImageFix" result="shape"/>
<feGaussianBlur stdDeviation="6" result="effect1_foregroundBlur"/>
</filter>
<linearGradient id="paint0_linear" x1="281" y1="653" x2="322.252" y2="9.42967" gradientUnits="userSpaceOnUse">
<stop stop-color="#E6EFFF"/>
<stop offset="1" stop-color="#4887E3"/>
</linearGradient>
<linearGradient id="paint1_linear" x1="337.08" y1="281" x2="336.866" y2="331.107" gradientUnits="userSpaceOnUse">
<stop stop-color="white"/>
<stop offset="1" stop-color="white" stop-opacity="0"/>
</linearGradient>
<linearGradient id="paint2_linear" x1="197.475" y1="423.261" x2="201.874" y2="166.667" gradientUnits="userSpaceOnUse">
<stop stop-color="#FFDBBA"/>
<stop offset="1" stop-color="#FF8C73"/>
</linearGradient>
<linearGradient id="paint3_linear" x1="38.4309" y1="217" x2="38.1793" y2="268.683" gradientUnits="userSpaceOnUse">
<stop stop-color="white"/>
<stop offset="1" stop-color="white" stop-opacity="0"/>
</linearGradient>
<linearGradient id="paint4_linear" x1="133.938" y1="1241.57" x2="135.663" y2="1226.06" gradientUnits="userSpaceOnUse">
<stop stop-color="#91E9EE"/>
<stop offset="1" stop-color="#ABB8F9"/>
</linearGradient>
<linearGradient id="paint5_linear" x1="132.061" y1="519.834" x2="266.772" y2="521.18" gradientUnits="userSpaceOnUse">
<stop stop-color="#91E9EE"/>
<stop offset="1" stop-color="#ABB8F9"/>
</linearGradient>
<linearGradient id="paint6_linear" x1="142.13" y1="474.268" x2="142.13" y2="520.18" gradientUnits="userSpaceOnUse">
<stop offset="0.0772481" stop-color="#ABB8F9"/>
<stop offset="0.950276" stop-color="#83CCFD"/>
</linearGradient>
<linearGradient id="paint7_linear" x1="114.97" y1="407.288" x2="124.652" y2="407.288" gradientUnits="userSpaceOnUse">
<stop stop-color="#AEAEFF"/>
<stop offset="0.974846" stop-color="#FF8A8B" stop-opacity="0.82"/>
</linearGradient>
</defs>
</svg>
