<svg width="1440" height="893" viewBox="0 0 1440 893" fill="none" xmlns="http://www.w3.org/2000/svg">
<rect width="1440" height="893" fill="#E6EFFF"/>
<rect y="-7" width="1440" height="893" fill="url(#paint0_linear)" fill-opacity="0.7"/>
<ellipse cx="719.5" cy="358.5" rx="294.5" ry="287.5" fill="url(#paint1_linear)"/>
<path d="M590.279 204.248L588.231 203.672V201.464L593.543 200.792H593.639L594.439 201.432V202.68L594.407 203.448C595.154 202.744 596.124 202.136 597.319 201.624C598.514 201.112 599.719 200.856 600.935 200.856C602.236 200.856 603.25 201.101 603.975 201.592C604.722 202.061 605.255 202.808 605.575 203.832C605.895 204.856 606.055 206.243 606.055 207.992V216.824L608.007 217.08V219H599.751V217.08L601.479 216.824V207.992C601.479 206.883 601.404 206.019 601.255 205.4C601.106 204.76 600.828 204.301 600.423 204.024C600.039 203.725 599.484 203.576 598.759 203.576C597.543 203.576 596.242 204.099 594.855 205.144V216.792L596.775 217.08V219H588.423V217.08L590.279 216.792V204.248ZM608.38 201.24H616.636V203.064L614.396 203.448L616.764 211.96L617.532 215.448L618.236 211.928L621.116 201.24H624.988L628.156 211.928L628.924 215.448L629.692 211.96L631.932 203.48L629.596 203.064V201.24H636.444V203.064L634.812 203.416L629.948 219.256H626.268L623.036 208.888L622.3 205.08L621.724 208.888L618.748 219.256H615.036L609.916 203.416L608.38 203.064V201.24ZM639.511 197.624L637.111 197.208V195.224H641.943C642.391 195.224 643.084 195.203 644.023 195.16C645.26 195.075 646.38 195.032 647.383 195.032C649.602 195.032 651.351 195.309 652.631 195.864C653.932 196.397 654.85 197.176 655.383 198.2C655.938 199.203 656.215 200.483 656.215 202.04C656.215 204.728 655.372 206.819 653.687 208.312C652.023 209.805 649.708 210.552 646.743 210.552C645.57 210.552 644.727 210.52 644.215 210.456V216.76L648.503 217.08V219H636.983V217.08L639.511 216.76V197.624ZM644.183 208.408C644.674 208.515 645.506 208.568 646.679 208.568C648.108 208.568 649.25 208.077 650.103 207.096C650.978 206.093 651.415 204.44 651.415 202.136C651.415 200.344 651.02 199.043 650.231 198.232C649.463 197.4 648.279 196.984 646.679 196.984C646.082 196.984 645.463 197.027 644.823 197.112C644.524 197.155 644.311 197.176 644.183 197.176V208.408ZM660.155 195.608L657.787 195.192V193.464L663.707 192.76H663.771L664.635 193.368V216.824L666.971 217.08V219H657.915V217.08L660.155 216.792V195.608ZM683.606 219.32C682.902 219.32 682.39 219.171 682.07 218.872C681.75 218.573 681.59 218.125 681.59 217.528V216.664C681.014 217.368 680.204 217.997 679.158 218.552C678.113 219.085 677.068 219.352 676.022 219.352C673.974 219.352 672.513 218.829 671.638 217.784C670.764 216.717 670.326 214.968 670.326 212.536V203.512L668.726 203.064V201.24L674.166 200.824H674.198L674.838 201.272V212.536C674.838 214.093 675.03 215.181 675.414 215.8C675.798 216.419 676.513 216.728 677.558 216.728C678.817 216.728 679.99 216.237 681.078 215.256V203.512L678.934 203.032V201.24L684.726 200.824H684.79L685.558 201.272V217.016H687.35L687.318 218.84C687.233 218.861 686.838 218.947 686.134 219.096C685.43 219.245 684.588 219.32 683.606 219.32ZM693.164 216.376C693.335 216.632 693.719 216.877 694.316 217.112C694.935 217.325 695.553 217.432 696.172 217.432C697.175 217.432 697.921 217.229 698.412 216.824C698.924 216.397 699.18 215.843 699.18 215.16C699.18 214.456 698.871 213.891 698.252 213.464C697.633 213.016 696.588 212.472 695.116 211.832L694.22 211.448C692.748 210.829 691.649 210.083 690.924 209.208C690.199 208.333 689.836 207.203 689.836 205.816C689.836 204.856 690.124 204.003 690.7 203.256C691.276 202.488 692.087 201.891 693.132 201.464C694.177 201.037 695.383 200.824 696.748 200.824C697.751 200.824 698.604 200.888 699.308 201.016C700.033 201.144 700.791 201.315 701.58 201.528C702.007 201.677 702.327 201.763 702.54 201.784V205.976H700.012L699.276 203.544C699.148 203.331 698.86 203.139 698.412 202.968C697.964 202.797 697.452 202.712 696.876 202.712C696.001 202.712 695.297 202.904 694.764 203.288C694.252 203.651 693.996 204.163 693.996 204.824C693.996 205.421 694.177 205.923 694.54 206.328C694.903 206.712 695.297 207.011 695.724 207.224C696.151 207.437 696.94 207.789 698.092 208.28C699.244 208.771 700.193 209.24 700.94 209.688C701.708 210.136 702.337 210.723 702.828 211.448C703.34 212.152 703.596 213.016 703.596 214.04C703.596 215.619 702.977 216.899 701.74 217.88C700.503 218.861 698.721 219.352 696.396 219.352C695.308 219.352 694.327 219.256 693.452 219.064C692.599 218.872 691.607 218.616 690.476 218.296L689.772 218.072V213.848H692.428L693.164 216.376ZM731.495 209.528C731.495 211.32 731.122 212.963 730.375 214.456C729.65 215.949 728.573 217.144 727.143 218.04C725.735 218.915 724.05 219.352 722.087 219.352C721.661 219.352 721.213 219.309 720.743 219.224C720.295 219.16 719.933 219.075 719.655 218.968L719.751 221.624V224.536L722.727 224.92V226.744H713.223V224.92L715.303 224.536V204.248L713.223 203.672V201.464L718.503 200.792H718.567L719.367 201.432V203.224C719.901 202.563 720.626 201.987 721.543 201.496C722.461 201.005 723.463 200.76 724.551 200.76C726.578 200.76 728.242 201.485 729.543 202.936C730.845 204.365 731.495 206.563 731.495 209.528ZM722.887 203.416C722.247 203.416 721.639 203.555 721.063 203.832C720.487 204.109 720.05 204.419 719.751 204.76V216.632C719.901 216.845 720.199 217.027 720.647 217.176C721.117 217.325 721.629 217.4 722.183 217.4C723.57 217.4 724.669 216.803 725.479 215.608C726.311 214.392 726.727 212.493 726.727 209.912C726.727 207.736 726.375 206.115 725.671 205.048C724.967 203.96 724.039 203.416 722.887 203.416ZM734.112 217.112L736.224 216.856V204.248L734.176 203.672V201.464L739.136 200.792H739.232L740.032 201.432V202.136L739.936 204.728H740.032C740.181 204.301 740.533 203.779 741.088 203.16C741.643 202.52 742.336 201.965 743.168 201.496C744.021 201.005 744.939 200.76 745.92 200.76C746.389 200.76 746.795 200.824 747.136 200.952V205.752C746.496 205.304 745.717 205.08 744.8 205.08C743.243 205.08 741.888 205.496 740.736 206.328V216.824L744.448 217.112V219H734.112V217.112ZM757.238 219.352C754.422 219.352 752.321 218.531 750.934 216.888C749.569 215.224 748.886 212.963 748.886 210.104C748.886 208.184 749.238 206.52 749.942 205.112C750.668 203.704 751.681 202.627 752.982 201.88C754.284 201.133 755.788 200.76 757.494 200.76C759.628 200.76 761.27 201.325 762.422 202.456C763.574 203.565 764.172 205.155 764.214 207.224C764.214 208.632 764.129 209.677 763.958 210.36H753.558C753.644 212.301 754.102 213.816 754.934 214.904C755.766 215.971 756.95 216.504 758.486 216.504C759.318 216.504 760.172 216.365 761.046 216.088C761.942 215.811 762.646 215.48 763.158 215.096L763.958 216.856C763.382 217.475 762.444 218.051 761.142 218.584C759.862 219.096 758.561 219.352 757.238 219.352ZM759.734 208.44C759.777 207.843 759.798 207.384 759.798 207.064C759.798 204.227 758.849 202.808 756.95 202.808C755.905 202.808 755.094 203.224 754.518 204.056C753.942 204.888 753.622 206.349 753.558 208.44H759.734ZM770.32 216.376C770.491 216.632 770.875 216.877 771.472 217.112C772.091 217.325 772.709 217.432 773.328 217.432C774.331 217.432 775.077 217.229 775.568 216.824C776.08 216.397 776.336 215.843 776.336 215.16C776.336 214.456 776.027 213.891 775.408 213.464C774.789 213.016 773.744 212.472 772.272 211.832L771.376 211.448C769.904 210.829 768.805 210.083 768.08 209.208C767.355 208.333 766.992 207.203 766.992 205.816C766.992 204.856 767.28 204.003 767.856 203.256C768.432 202.488 769.243 201.891 770.288 201.464C771.333 201.037 772.539 200.824 773.904 200.824C774.907 200.824 775.76 200.888 776.464 201.016C777.189 201.144 777.947 201.315 778.736 201.528C779.163 201.677 779.483 201.763 779.696 201.784V205.976H777.168L776.432 203.544C776.304 203.331 776.016 203.139 775.568 202.968C775.12 202.797 774.608 202.712 774.032 202.712C773.157 202.712 772.453 202.904 771.92 203.288C771.408 203.651 771.152 204.163 771.152 204.824C771.152 205.421 771.333 205.923 771.696 206.328C772.059 206.712 772.453 207.011 772.88 207.224C773.307 207.437 774.096 207.789 775.248 208.28C776.4 208.771 777.349 209.24 778.096 209.688C778.864 210.136 779.493 210.723 779.984 211.448C780.496 212.152 780.752 213.016 780.752 214.04C780.752 215.619 780.133 216.899 778.896 217.88C777.659 218.861 775.877 219.352 773.552 219.352C772.464 219.352 771.483 219.256 770.608 219.064C769.755 218.872 768.763 218.616 767.632 218.296L766.928 218.072V213.848H769.584L770.32 216.376ZM791.426 219.352C788.61 219.352 786.509 218.531 785.122 216.888C783.757 215.224 783.074 212.963 783.074 210.104C783.074 208.184 783.426 206.52 784.13 205.112C784.855 203.704 785.869 202.627 787.17 201.88C788.471 201.133 789.975 200.76 791.682 200.76C793.815 200.76 795.458 201.325 796.61 202.456C797.762 203.565 798.359 205.155 798.402 207.224C798.402 208.632 798.317 209.677 798.146 210.36H787.746C787.831 212.301 788.29 213.816 789.122 214.904C789.954 215.971 791.138 216.504 792.674 216.504C793.506 216.504 794.359 216.365 795.234 216.088C796.13 215.811 796.834 215.48 797.346 215.096L798.146 216.856C797.57 217.475 796.631 218.051 795.33 218.584C794.05 219.096 792.749 219.352 791.426 219.352ZM793.922 208.44C793.965 207.843 793.986 207.384 793.986 207.064C793.986 204.227 793.037 202.808 791.138 202.808C790.093 202.808 789.282 203.224 788.706 204.056C788.13 204.888 787.81 206.349 787.746 208.44H793.922ZM802.748 204.248L800.7 203.672V201.464L806.012 200.792H806.108L806.908 201.432V202.68L806.876 203.448C807.622 202.744 808.593 202.136 809.788 201.624C810.982 201.112 812.188 200.856 813.404 200.856C814.705 200.856 815.718 201.101 816.444 201.592C817.19 202.061 817.724 202.808 818.044 203.832C818.364 204.856 818.524 206.243 818.524 207.992V216.824L820.476 217.08V219H812.22V217.08L813.948 216.824V207.992C813.948 206.883 813.873 206.019 813.724 205.4C813.574 204.76 813.297 204.301 812.892 204.024C812.508 203.725 811.953 203.576 811.228 203.576C810.012 203.576 808.71 204.099 807.324 205.144V216.792L809.244 217.08V219H800.892V217.08L802.748 216.792V204.248ZM828.113 219.288C826.769 219.288 825.777 218.979 825.137 218.36C824.497 217.741 824.177 216.76 824.177 215.416V203.672H822.097V202.008C822.268 201.944 822.577 201.837 823.025 201.688C823.473 201.517 823.814 201.379 824.049 201.272C824.412 200.995 824.721 200.515 824.977 199.832C825.169 199.384 825.521 198.275 826.033 196.504H828.593L828.721 201.208H833.617V203.672H828.753V212.664C828.753 213.859 828.785 214.701 828.849 215.192C828.913 215.683 829.052 216.003 829.265 216.152C829.478 216.28 829.852 216.344 830.385 216.344C830.918 216.344 831.473 216.291 832.049 216.184C832.625 216.056 833.105 215.907 833.489 215.736L834.097 217.528C833.5 217.976 832.625 218.381 831.473 218.744C830.321 219.107 829.201 219.288 828.113 219.288ZM839.351 216.376C839.522 216.632 839.906 216.877 840.503 217.112C841.122 217.325 841.741 217.432 842.359 217.432C843.362 217.432 844.109 217.229 844.599 216.824C845.111 216.397 845.367 215.843 845.367 215.16C845.367 214.456 845.058 213.891 844.439 213.464C843.821 213.016 842.775 212.472 841.303 211.832L840.407 211.448C838.935 210.829 837.837 210.083 837.111 209.208C836.386 208.333 836.023 207.203 836.023 205.816C836.023 204.856 836.311 204.003 836.887 203.256C837.463 202.488 838.274 201.891 839.319 201.464C840.365 201.037 841.57 200.824 842.935 200.824C843.938 200.824 844.791 200.888 845.495 201.016C846.221 201.144 846.978 201.315 847.767 201.528C848.194 201.677 848.514 201.763 848.727 201.784V205.976H846.199L845.463 203.544C845.335 203.331 845.047 203.139 844.599 202.968C844.151 202.797 843.639 202.712 843.063 202.712C842.189 202.712 841.485 202.904 840.951 203.288C840.439 203.651 840.183 204.163 840.183 204.824C840.183 205.421 840.365 205.923 840.727 206.328C841.09 206.712 841.485 207.011 841.911 207.224C842.338 207.437 843.127 207.789 844.279 208.28C845.431 208.771 846.381 209.24 847.127 209.688C847.895 210.136 848.525 210.723 849.015 211.448C849.527 212.152 849.783 213.016 849.783 214.04C849.783 215.619 849.165 216.899 847.927 217.88C846.69 218.861 844.909 219.352 842.583 219.352C841.495 219.352 840.514 219.256 839.639 219.064C838.786 218.872 837.794 218.616 836.663 218.296L835.959 218.072V213.848H838.615L839.351 216.376Z" fill="white"/>
<path d="M579.354 254H568.954V288.88C568.954 297.04 565.514 301.04 558.474 301.04C551.434 301.04 547.994 297.04 547.994 288.88V254H537.594V288.72C537.594 303.68 546.234 310.64 558.474 310.64C570.714 310.64 579.354 303.68 579.354 288.72V254ZM589.2 254V310H610.08C621.52 310 628.56 304 628.56 293.12C628.56 286 625.44 281.6 620.16 279.44C623.68 277.6 625.68 273.68 625.68 269.12C625.68 258.96 619.2 254 609.68 254H589.2ZM608.88 263.6C613.28 263.6 615.68 265.12 615.68 269.68C615.68 274.24 613.28 275.76 609.12 275.76H599.6V263.6H608.88ZM609.12 285.36C615.6 285.36 618.16 288.08 618.16 292.88C618.16 297.68 615.6 300.4 609.12 300.4H599.6V285.36H609.12ZM685.989 270.32C683.349 259.6 674.949 253.36 662.789 253.36C648.789 253.36 636.309 263.28 636.309 282C636.309 300.72 648.789 310.64 662.789 310.64C674.949 310.64 683.349 304.4 685.989 293.68L676.629 291.28C674.469 296.96 670.549 301.04 662.789 301.04C654.149 301.04 646.869 294.96 646.869 282C646.869 269.04 654.149 262.96 662.789 262.96C670.549 262.96 674.469 267.04 676.629 272.72L685.989 270.32ZM715.528 254V310H749.688V300.4H725.928V254H715.528ZM754.659 289.84C754.659 301.52 762.179 310.64 775.139 310.64C788.099 310.64 795.619 301.52 795.619 289.84C795.619 278.16 788.099 269.04 775.139 269.04C762.179 269.04 754.659 278.16 754.659 289.84ZM765.059 289.84C765.059 283.2 768.739 277.52 775.139 277.52C781.539 277.52 785.219 283.2 785.219 289.84C785.219 296.48 781.539 302.16 775.139 302.16C768.739 302.16 765.059 296.48 765.059 289.84ZM832.138 295.52C830.058 299.76 827.178 302.16 822.698 302.16C816.458 302.16 813.418 296.96 813.418 289.84C813.418 282.72 816.458 277.52 822.698 277.52C827.178 277.52 830.058 279.92 832.138 284.16L841.018 280.56C837.978 272.96 831.658 269.04 822.698 269.04C809.578 269.04 803.018 278.48 803.018 289.84C803.018 301.2 809.578 310.64 822.698 310.64C831.658 310.64 837.978 306.72 841.018 299.12L832.138 295.52ZM856.991 282.16C858.271 278.4 861.151 277.52 863.951 277.52C867.631 277.52 870.991 278.96 870.991 283.44V285.2H864.271C854.111 285.2 847.071 290.4 847.071 298.4C847.071 306.4 852.431 310.64 859.311 310.64C865.071 310.64 868.911 308.32 871.711 304.88L872.751 310H880.911V285.92C880.911 273.04 873.551 269.04 863.951 269.04C855.711 269.04 849.871 273.6 848.591 280.24L856.991 282.16ZM857.471 298.24C857.471 294.64 860.111 293.04 864.351 293.04H870.991V293.84C870.991 299.04 866.191 302.16 861.631 302.16C858.831 302.16 857.471 300.16 857.471 298.24ZM890.74 253.36V310H900.66V253.36H890.74ZM557.364 389H567.764V363.88H590.164V389H600.564V333H590.164V354.28H567.764V333H557.364V389ZM620.233 361.16C621.513 357.4 624.393 356.52 627.193 356.52C630.873 356.52 634.233 357.96 634.233 362.44V364.2H627.513C617.353 364.2 610.313 369.4 610.313 377.4C610.313 385.4 615.673 389.64 622.553 389.64C628.313 389.64 632.153 387.32 634.953 383.88L635.993 389H644.153V364.92C644.153 352.04 636.793 348.04 627.193 348.04C618.953 348.04 613.113 352.6 611.833 359.24L620.233 361.16ZM620.713 377.24C620.713 373.64 623.353 372.04 627.593 372.04H634.233V372.84C634.233 378.04 629.433 381.16 624.873 381.16C622.073 381.16 620.713 379.16 620.713 377.24ZM681.865 374.52C679.785 378.76 676.905 381.16 672.425 381.16C666.185 381.16 663.145 375.96 663.145 368.84C663.145 361.72 666.185 356.52 672.425 356.52C676.905 356.52 679.785 358.92 681.865 363.16L690.745 359.56C687.705 351.96 681.385 348.04 672.425 348.04C659.305 348.04 652.745 357.48 652.745 368.84C652.745 380.2 659.305 389.64 672.425 389.64C681.385 389.64 687.705 385.72 690.745 378.12L681.865 374.52ZM698.048 332.36V389H707.968V369.96L722.208 389H734.368L717.168 367.24L733.328 348.68H721.088L707.968 364.52V332.36H698.048ZM779.181 389C792.381 389 805.261 380.6 805.261 361C805.261 341.4 792.381 333 779.181 333H761.661V389H779.181ZM772.061 379.4V342.6H775.901C784.861 342.6 794.701 346.12 794.701 361C794.701 375.88 784.861 379.4 775.901 379.4H772.061ZM822.421 361.16C823.701 357.4 826.581 356.52 829.381 356.52C833.061 356.52 836.421 357.96 836.421 362.44V364.2H829.701C819.541 364.2 812.501 369.4 812.501 377.4C812.501 385.4 817.861 389.64 824.741 389.64C830.501 389.64 834.341 387.32 837.141 383.88L838.181 389H846.341V364.92C846.341 352.04 838.981 348.04 829.381 348.04C821.141 348.04 815.301 352.6 814.021 359.24L822.421 361.16ZM822.901 377.24C822.901 373.64 825.541 372.04 829.781 372.04H836.421V372.84C836.421 378.04 831.621 381.16 827.061 381.16C824.261 381.16 822.901 379.16 822.901 377.24ZM850.56 348.68L865.2 386.44L858.24 405.32H867.84L888.64 348.68H878.72L869.92 373.96L860.56 348.68H850.56Z" fill="white"/>
<path d="M604.287 429C608.247 429 612.111 426.48 612.111 420.6C612.111 414.72 608.247 412.2 604.287 412.2H599.031V429H604.287ZM602.151 426.12V415.08H603.303C605.991 415.08 608.943 416.136 608.943 420.6C608.943 425.064 605.991 426.12 603.303 426.12H602.151ZM625.875 422.688C625.875 420.048 624.267 416.712 620.235 416.712C616.083 416.712 614.427 420.096 614.427 422.952C614.427 425.808 616.083 429.192 620.235 429.192C623.163 429.192 624.795 427.8 625.731 425.664L623.331 424.776C622.611 426.024 621.771 426.648 620.403 426.648C618.555 426.648 617.619 425.256 617.547 423.912H625.875V422.688ZM620.235 419.256C621.819 419.256 622.563 420.36 622.827 421.56H617.619C617.835 420.408 618.723 419.256 620.235 419.256ZM637.014 424.656C636.39 425.928 635.526 426.648 634.182 426.648C632.31 426.648 631.398 425.088 631.398 422.952C631.398 420.816 632.31 419.256 634.182 419.256C635.526 419.256 636.39 419.976 637.014 421.248L639.678 420.168C638.766 417.888 636.87 416.712 634.182 416.712C630.246 416.712 628.278 419.544 628.278 422.952C628.278 426.36 630.246 429.192 634.182 429.192C636.87 429.192 638.766 428.016 639.678 425.736L637.014 424.656ZM652.97 412.2L648.05 415.08V418.344L651.266 416.424V429H654.29V412.2H652.97ZM657.255 432.744H659.343L663.063 425.496H659.055L657.255 432.744ZM672.095 429H682.775V426.216H676.871L680.975 420.864C681.983 419.544 682.415 418.224 682.415 416.88C682.415 414.048 680.591 412.008 677.399 412.008C674.591 412.008 672.527 413.928 672.359 416.472L675.143 417C675.335 415.584 676.127 414.792 677.327 414.792C678.695 414.792 679.391 415.632 679.391 417C679.391 417.96 679.103 418.776 678.095 420.048L672.095 427.8V429ZM691.996 412.008C687.988 412.008 685.804 415.224 685.804 420.6C685.804 425.976 687.988 429.192 691.996 429.192C696.004 429.192 698.188 425.976 698.188 420.6C698.188 415.224 696.004 412.008 691.996 412.008ZM691.996 414.792C694.204 414.792 695.212 416.856 695.212 420.6C695.212 424.344 694.204 426.408 691.996 426.408C689.788 426.408 688.78 424.344 688.78 420.6C688.78 416.856 689.788 414.792 691.996 414.792ZM705.423 412.2L700.503 415.08V418.344L703.719 416.424V429H706.743V412.2H705.423ZM715.796 412.008C712.94 412.008 710.972 414.096 710.972 416.592C710.972 417.96 711.524 419.16 712.532 419.952C711.164 420.72 710.324 422.088 710.324 423.984C710.324 427.248 712.868 429.192 715.796 429.192C718.724 429.192 721.268 427.248 721.268 423.984C721.268 422.088 720.404 420.72 719.036 419.952C720.044 419.16 720.62 417.96 720.62 416.592C720.62 414.096 718.652 412.008 715.796 412.008ZM715.796 421.56C717.164 421.56 718.244 422.424 718.244 423.984C718.244 425.544 717.164 426.408 715.796 426.408C714.428 426.408 713.348 425.544 713.348 423.984C713.348 422.424 714.428 421.56 715.796 421.56ZM715.796 414.552C717.02 414.552 717.812 415.392 717.812 416.64C717.812 417.912 717.02 418.776 715.796 418.776C714.572 418.776 713.78 417.912 713.78 416.64C713.78 415.392 714.572 414.552 715.796 414.552ZM723.091 432.744H725.179L728.899 425.496H724.891L723.091 432.744ZM743.907 422.952L740.259 429.192H743.619L748.515 420.432C748.995 419.592 749.331 418.488 749.331 417.48C749.331 414.336 746.883 412.008 743.715 412.008C740.499 412.008 738.099 414.36 738.099 417.48C738.099 420.744 740.451 422.952 743.523 422.952H743.907ZM743.715 420.168C742.275 420.168 741.123 419.208 741.123 417.48C741.123 415.848 742.275 414.792 743.715 414.792C745.131 414.792 746.307 415.848 746.307 417.48C746.307 419.208 745.155 420.168 743.715 420.168ZM760.658 429H764.018L758.33 412.2H755.21L749.522 429H752.882L754.106 425.04H759.434L760.658 429ZM756.77 416.328L758.546 422.16H754.994L756.77 416.328ZM766.305 429H769.425V418.632L772.641 427.464H774.897L778.113 418.632V429H781.233V412.2H777.729L773.769 422.688L769.809 412.2H766.305V429ZM784.947 422.688H793.899V420.096H784.947V422.688ZM802.969 422.952L799.321 429.192H802.681L807.577 420.432C808.057 419.592 808.393 418.488 808.393 417.48C808.393 414.336 805.945 412.008 802.777 412.008C799.561 412.008 797.161 414.36 797.161 417.48C797.161 420.744 799.513 422.952 802.585 422.952H802.969ZM802.777 420.168C801.337 420.168 800.185 419.208 800.185 417.48C800.185 415.848 801.337 414.792 802.777 414.792C804.193 414.792 805.369 415.848 805.369 417.48C805.369 419.208 804.217 420.168 802.777 420.168ZM818.18 422.424C821.732 422.424 823.436 420.24 823.436 417.312C823.436 414.384 821.732 412.2 818.18 412.2H811.844V429H814.964V422.424H818.18ZM818.06 419.544H814.964V415.08H818.06C819.428 415.08 820.268 415.776 820.268 417.312C820.268 418.848 819.428 419.544 818.06 419.544ZM826.047 429H829.167V418.632L832.383 427.464H834.639L837.855 418.632V429H840.975V412.2H837.471L833.511 422.688L829.551 412.2H826.047V429ZM682.639 459C686.599 459 690.463 456.48 690.463 450.6C690.463 444.72 686.599 442.2 682.639 442.2H677.383V459H682.639ZM680.503 456.12V445.08H681.655C684.343 445.08 687.295 446.136 687.295 450.6C687.295 455.064 684.343 456.12 681.655 456.12H680.503ZM693.765 459H696.885V448.632L700.101 457.464H702.357L705.573 448.632V459H708.693V442.2H705.189L701.229 452.688L697.269 442.2H693.765V459ZM718.453 452.424C722.005 452.424 723.709 450.24 723.709 447.312C723.709 444.384 722.005 442.2 718.453 442.2H712.117V459H715.237V452.424H718.453ZM718.333 449.544H715.237V445.08H718.333C719.701 445.08 720.541 445.776 720.541 447.312C720.541 448.848 719.701 449.544 718.333 449.544ZM736.665 442.2L731.745 445.08V448.344L734.961 446.424V459H737.985V442.2H736.665ZM746.04 442.2L741.12 445.08V448.344L744.336 446.424V459H747.36V442.2H746.04ZM757.106 442.008C753.098 442.008 750.914 445.224 750.914 450.6C750.914 455.976 753.098 459.192 757.106 459.192C761.114 459.192 763.298 455.976 763.298 450.6C763.298 445.224 761.114 442.008 757.106 442.008ZM757.106 444.792C759.314 444.792 760.322 446.856 760.322 450.6C760.322 454.344 759.314 456.408 757.106 456.408C754.898 456.408 753.89 454.344 753.89 450.6C753.89 446.856 754.898 444.792 757.106 444.792Z" fill="white"/>
<path d="M562.846 755.772C564.377 753.333 567.216 751.825 570.294 751.817L865.849 751.052C867.975 751.046 870.028 751.759 871.614 753.053L894.225 771.513C896.583 773.438 895.092 777.006 891.928 777.006H555.464C552.817 777.006 551.158 774.392 552.475 772.294L562.846 755.772Z" fill="white"/>
<path d="M873.283 761.534C873.283 762.912 869.097 764.029 863.934 764.029C858.771 764.029 854.585 762.912 854.585 761.534C854.585 760.156 858.771 759.162 863.934 759.162C869.097 759.162 873.283 760.156 873.283 761.534Z" fill="#C1D4F5"/>
<path d="M844.782 755.401H577.07L569.623 770.148L854.882 770.517L844.782 755.401Z" fill="url(#paint2_linear)" fill-opacity="0.5"/>
<g filter="url(#filter0_f)">
<path d="M888.581 695.898H531.615L574.101 759.163H847.41L888.581 695.898Z" fill="url(#paint3_linear)"/>
</g>
<path d="M376.93 716.987L539.184 595.325H881.52L1061.96 716.987H376.93Z" fill="url(#paint4_linear)"/>
<rect x="754.294" y="579.104" width="6.79938" height="22.7102" fill="#857895"/>
<rect x="759.394" y="582.348" width="98.5906" height="17.8437" fill="#ABB8F9"/>
<path d="M754.294 579.104H852.289L857.867 582.348H759.42L754.294 579.104Z" fill="#8280DC"/>
<path d="M515.612 632.409C520.482 633.601 525.375 631.049 526.541 626.71C527.706 622.37 524.702 617.887 519.832 616.696L493.328 610.214C486.349 608.507 476.829 608.564 475.338 614.823C474.057 620.199 481.419 624.047 487.413 625.513L515.612 632.409Z" fill="#735BA5"/>
<path d="M520.064 488.113C516.012 483.318 507.686 481.284 504.268 482.205C496.707 481.987 490.28 481.106 483.762 487.73C474.282 497.363 476.959 509.291 470.751 525.569C467.812 533.278 459.072 531.431 456.74 540.907C454.784 548.855 457.435 550.791 461.612 556.54C465.789 562.29 457.537 564.624 454.555 571.734C451.572 578.845 459.528 586.024 463.76 587.09C472.328 589.249 468.349 606.954 469.52 602.968C470.691 598.981 487.799 598.788 487.42 593.397C486.978 587.108 488.663 582.186 493.575 581.871C498.486 581.557 501.616 576.542 505.402 568.477C509.188 560.413 511.339 578.627 518.074 583.611C524.809 588.595 526.931 585.752 532.164 594.142C536.351 600.854 545.431 601.214 549.447 600.556C546.98 597.104 543.297 589.036 548.31 584.383C554.575 578.566 558.063 578.643 557.495 570.557C557.008 563.642 550.69 560.463 546.519 558.925C542.348 557.387 542.4 549.862 545.403 543.051C548.406 536.24 541.024 526.182 535.987 524.7C531.73 523.447 530.139 519.96 529.965 513.352C529.79 506.745 525.129 494.106 520.064 488.113Z" fill="#735BA5"/>
<path d="M454.932 590.66C457.236 597.405 456.767 603.904 456.096 610.581C455.626 615.257 444.299 614.895 446.827 600.536C447.94 594.216 448.206 592.303 454.932 590.66L454.932 590.66Z" fill="#DBE5F5"/>
<path d="M439.824 622.902C435.13 622.902 431.325 617.455 431.325 610.735C431.325 604.016 435.13 598.569 439.824 598.569C444.518 598.569 448.323 604.016 448.323 610.735C448.323 617.455 444.518 622.902 439.824 622.902Z" fill="#FF8C73"/>
<path d="M460.224 609.114C460.224 616.729 459.941 622.902 465.484 622.902C471.027 622.902 475.521 616.729 475.521 609.114C475.521 601.498 471.027 595.325 465.484 595.325C459.941 595.325 460.224 601.498 460.224 609.114Z" fill="#FF8C73"/>
<path d="M500.227 570.62L476.398 582.207C476.398 582.207 509.649 629.701 517.827 632.958C526.006 636.216 534.397 631.272 534.282 623.228C534.168 615.183 513.527 591.164 500.227 570.62Z" fill="#8280DC"/>
<path d="M444.105 603.59C436.517 600.057 435.814 607.616 436.828 612.078L447.34 617.836C449.74 617.201 452.082 614.206 452.627 610.073L444.105 603.59Z" fill="#DBE5F5"/>
<path d="M485.905 578.972C478.587 581.267 468.253 574.101 462.214 586.181C456.174 598.262 475.849 637.833 482.163 642.17C488.477 646.508 501.599 643.661 501.091 634.349L485.905 578.972Z" fill="#8280DC"/>
<path d="M451.997 606.159C444.954 610.775 443.261 614.189 444.118 621.703L484.02 643.179C495.211 645.139 499.242 636.439 497.446 627.421L451.997 606.159Z" fill="#8280DC"/>
<path d="M532.708 501.57C532.563 494.293 535.352 488.348 538.424 482.314C540.575 478.088 552.786 482.919 544.999 495.464C541.571 500.986 540.61 502.686 532.709 501.57L532.708 501.57Z" fill="#DBE5F5"/>
<path fill-rule="evenodd" clip-rule="evenodd" d="M509.827 546.261C525.644 537.63 538.512 517.831 544.841 497.605C547.667 488.574 533.535 487.679 532.476 493.807C531.017 502.245 520.269 521.173 505.037 532.662C501.381 528.643 495.958 526.008 489.848 525.706C486.435 525.538 483.153 526.113 480.182 527.286C453.816 529.483 450.622 566.538 448.332 595.693C447.969 600.307 459.273 606.617 460.009 596.028C460.86 583.782 461.876 572.534 464.567 562.656C464.38 565.09 464.236 567.557 464.141 570.175C463.707 582.125 474.83 591.318 487.435 590.352L490.675 590.103C503.765 589.1 510.512 575.833 509.229 563.476C508.711 558.49 509.144 553.762 509.688 547.81L509.801 546.583C509.81 546.475 509.819 546.368 509.827 546.261Z" fill="#0C2264"/>
<path d="M506.118 530.439C494.852 530.439 485.72 521.36 485.72 510.162C485.72 498.963 494.852 489.885 506.118 489.885C517.383 489.885 526.516 498.963 526.516 510.162C526.516 521.36 517.383 530.439 506.118 530.439Z" fill="#DBE5F5"/>
<path d="M475.521 501.239H529.915" stroke="#C2C2E1" stroke-width="4"/>
<path d="M529.916 502.861H490.819C490.819 505.32 491.869 511.537 494.312 513.995C496.756 516.453 506.53 516.453 508.973 513.995C511.417 511.537 511.799 509.218 515.254 512.694C516.069 514.333 518.675 515.152 522.585 515.152C526.495 515.152 529.101 512.694 529.916 510.236V502.861Z" fill="url(#paint5_linear)" fill-opacity="0.8"/>
<path d="M510.028 528.089C510.028 528.089 508.742 518.415 501.046 520.693C493.35 522.971 490.477 526.403 487.484 535.693L500.848 541.163C502.709 531.966 501.149 530.462 510.028 528.089Z" fill="#DBE5F5"/>
<path d="M475.52 534.63C475.52 539.968 481.51 549.904 487.699 549.904C493.889 549.904 502.718 544.455 502.718 539.117C502.718 533.779 493.889 530.573 487.699 530.573C481.51 530.573 475.52 529.292 475.52 534.63Z" fill="#DBE5F5"/>
<path fill-rule="evenodd" clip-rule="evenodd" d="M708.724 595.325H725.454L743.116 650.367L683.785 688.33L708.724 595.325ZM679.613 703.89L676.102 716.987H764.493L746.487 660.873L679.613 703.89Z" fill="#DBF2F5"/>
<path d="M684.601 580.885L691.4 569.37L690.55 610.924L684.601 627.768V580.885Z" fill="#ABB8F9"/>
<rect x="640.404" y="574.236" width="13.5987" height="29.1987" fill="#735BA5"/>
<rect x="648.903" y="580.726" width="35.6966" height="45.4203" fill="#DBE5F5"/>
<path d="M633.639 580.765L640.472 574.215V619.804L633.639 624.827V580.765Z" fill="#8280DC"/>
<rect x="580.91" y="580.726" width="52.695" height="51.909" fill="#DBE5F5"/>
<path d="M592.081 569.37H645.51L633.848 580.725H580.91L592.081 569.37Z" fill="#ABB8F9"/>
<path d="M643.267 569.37H691.605L688.828 574.237H640.404L643.267 569.37Z" fill="#ABB8F9"/>
<path d="M654.275 572.615L689.699 573.711L686.246 580.726H648.903L654.275 572.615Z" fill="#ABB8F9"/>
<rect x="586.01" y="592.081" width="44.1958" height="4.86646" fill="#91E9EE"/>
<rect x="586.01" y="583.97" width="44.1958" height="4.86646" fill="#91E9EE"/>
<rect x="586.01" y="598.569" width="44.1958" height="4.86639" fill="#91E9EE"/>
<rect x="650.604" y="592.081" width="32.2969" height="4.86646" fill="#91E9EE"/>
<rect x="650.604" y="583.97" width="32.2969" height="4.86646" fill="#91E9EE"/>
<rect x="650.604" y="596.947" width="32.2969" height="4.86646" fill="#91E9EE"/>
<rect x="650.604" y="613.168" width="32.2969" height="4.86652" fill="#91E9EE"/>
<rect x="650.604" y="605.058" width="32.2969" height="4.86646" fill="#91E9EE"/>
<rect x="650.604" y="619.657" width="32.2969" height="4.86652" fill="#91E9EE"/>
<rect x="586.01" y="616.413" width="44.1958" height="4.86652" fill="#CDDCF4"/>
<rect x="586.01" y="606.68" width="44.1958" height="4.86639" fill="#CDDCF4"/>
<rect x="586.01" y="622.901" width="44.1958" height="4.86646" fill="#CDDCF4"/>
<path d="M600.813 601.813H671.003L667.278 609.924H594.51L600.813 601.813Z" fill="#ABB8F9"/>
<path d="M656.826 596.934L658.932 595.475L658.932 604.254L656.826 606.638L656.826 596.934Z" fill="#735BA5"/>
<rect x="611.508" y="596.9" width="45.339" height="9.7785" fill="#D1EDFF"/>
<path d="M613.859 595.478H658.931L656.852 596.947H611.508L613.859 595.478Z" fill="#8280DC"/>
<path d="M666.9 609.784L670.887 601.841L670.887 647.059L666.9 652.096L666.9 609.784Z" fill="#8280DC"/>
<rect x="594.51" y="609.924" width="72.3849" height="42.1761" fill="#D1EDFF"/>
<rect x="840.986" y="602.557" width="35.6672" height="26.8334" fill="#735BA5"/>
<path d="M825.688 596.335L861.721 595.325L876.683 602.671L838.826 604.225L825.688 596.335Z" fill="#D1EDFF"/>
<path fill-rule="evenodd" clip-rule="evenodd" d="M859.461 615.671L830.4 596.095H808.359L853.895 628.88L872.221 624.518L908.98 622.772L894.138 614.791L859.461 615.671Z" fill="#D1EDFF"/>
<path d="M808.414 596.218L854.585 625.228V661.833L808.414 626.863V596.218Z" fill="#8280DC"/>
<rect x="752.594" y="543.416" width="49.2953" height="69.7526" fill="#D1EDFF"/>
<path d="M766.193 549.904H767.893V562.882H766.193V549.904Z" fill="#91E9EE"/>
<path d="M771.293 556.394H772.993V569.371H771.293V556.394Z" fill="#FF8C73"/>
<path d="M744.095 548.614L752.594 543.416V613.169L744.095 605.464L744.095 548.614Z" fill="#91E9EE"/>
<path d="M755.994 551.526H757.694V564.504H755.994V551.526Z" fill="#06C1C0"/>
<path d="M759.394 558.015H761.093V570.992H759.394V558.015Z" fill="#735BA5"/>
<path d="M778.093 567.748H779.793V580.725H778.093V567.748Z" fill="#91E9EE"/>
<path d="M781.492 570.992H783.192V583.969H781.492V570.992Z" fill="#E16161"/>
<path d="M767.893 567.748H769.592V580.725H767.893V567.748Z" fill="#06C1C0"/>
<path d="M771.293 574.236H772.993V587.214H771.293V574.236Z" fill="#735BA5"/>
<path d="M791.69 549.904H793.39V562.882H791.69V549.904Z" fill="#06C1C0"/>
<path d="M795.091 556.394H796.791V569.371H795.091V556.394Z" fill="#FBC28E"/>
<path d="M781.492 551.526H783.192V564.504H781.492V551.526Z" fill="#FBC28E"/>
<path d="M784.892 558.015H786.591V570.992H784.892V558.015Z" fill="#735BA5"/>
<rect x="761.093" y="593.702" width="28.8972" height="4.86652" fill="#C2C2E1"/>
<path d="M772.435 590.461L790.463 590.9C792.321 590.945 794.111 591.549 795.554 592.617L800.425 596.223C807.463 601.432 801.777 611.718 793.002 609.654L769.736 604.179C761.356 601.573 763.584 590.245 772.435 590.461Z" fill="#C2C2E1"/>
<path d="M766.345 594.7C767.166 586.795 775.89 591.828 776.298 594.7C776.705 597.571 778.092 632.634 778.092 632.634L768.303 623.566C768.303 623.566 765.524 602.605 766.345 594.7Z" fill="#735BA5"/>
<path d="M761.341 591.267L790.826 610.261L791.018 624.287L761.295 598.038L761.341 591.267Z" fill="#735BA5"/>
<path d="M766.193 600.191L770.366 602.818L771.293 624.524H766.193V600.191Z" fill="#ABB8F9"/>
<path d="M766.193 600.191L770.366 602.818L771.293 624.524H766.193V600.191Z" fill="#ABB8F9"/>
<path d="M769.593 608.303L784.891 620.662V643.99L769.593 626.842V608.303Z" fill="#ABB8F9"/>
<path d="M783.191 618.035L786.591 620.224V643.99L783.191 640.55V618.035Z" fill="#735BA5"/>
<path d="M778.093 614.791L781.492 617.055V639.123L778.093 635.929V614.791Z" fill="#735BA5"/>
<path d="M772.992 609.924L776.392 612.363L776.03 632.634L772.992 629.624V609.924Z" fill="#735BA5"/>
<path d="M769.593 608.303L771.293 609.491V627.769L769.593 626.882V608.303Z" fill="#735BA5"/>
<path d="M771.293 608.303L772.993 609.682V614.791L771.293 613.331V608.303Z" fill="#D1EDFF"/>
<path d="M776.393 613.168L778.092 614.547V619.657L776.393 617.791V613.168Z" fill="#D1EDFF"/>
<path d="M781.492 616.413L783.192 617.904V622.902L781.492 621.411V616.413Z" fill="#D1EDFF"/>
<path d="M754.294 595.325L766.193 605.999V626.146L754.294 611.336V595.325Z" fill="#ABB8F9"/>
<path d="M762.793 603.436L766.193 605.214V624.524L762.793 621.729V603.436Z" fill="#735BA5"/>
<path d="M759.394 600.191L761.093 602.002V619.657L759.394 617.102V600.191Z" fill="#735BA5"/>
<path d="M755.994 596.947L759.394 599.038L759.032 616.413L755.994 613.833V596.947Z" fill="#735BA5"/>
<path d="M754.294 595.325L755.994 596.316V611.547L754.294 610.808V595.325Z" fill="#735BA5"/>
<path d="M754.294 596.947L755.994 597.981V601.814L754.294 600.719V596.947Z" fill="#D1EDFF"/>
<path d="M757.693 600.191L759.393 601.226V605.058L757.693 603.659V600.191Z" fill="#D1EDFF"/>
<path d="M761.093 603.436L762.793 604.554V608.302L761.093 607.184V603.436Z" fill="#D1EDFF"/>
<rect x="786.592" y="618.035" width="33.9968" height="3.24426" fill="#DBE5F5"/>
<path d="M761.017 595.248L770.438 602.905L766.021 605.053L755.047 595.249L761.017 595.248Z" fill="#D1EDFF"/>
<path d="M776.158 607.772L790.771 618.484L787.416 620.749L770.511 607.854L776.158 607.772Z" fill="#D1EDFF"/>
<rect x="784.892" y="618.035" width="35.6966" height="27.5767" fill="#D1EDFF"/>
<rect x="789.991" y="618.035" width="11.8989" height="24.3323" fill="#8280DC"/>
<rect x="806.989" y="618.035" width="11.8989" height="24.3323" fill="#8280DC"/>
<path d="M776.312 602.152L803.926 603.593L820.666 611.208L789.029 611.184L776.312 602.152Z" fill="#C2C2E1"/>
<rect x="788.882" y="611.068" width="31.7056" height="6.96753" fill="#735BA5"/>
<path d="M761.839 643.72L786.458 673.288L786.458 687.961L761.839 656.05L761.839 643.72Z" fill="#8280DC"/>
<rect x="786.468" y="671.566" width="86.8145" height="16.3792" fill="#735BA5"/>
<rect x="791.69" y="676.433" width="78.1926" height="4.86646" fill="#ABB8F9"/>
<rect x="791.69" y="679.677" width="78.1926" height="4.86652" fill="#ABB8F9"/>
<path d="M1026.82 651.684C1022.67 667.877 1031.42 662.848 1031.15 666.448C1066.46 670.942 1068.48 656.765 1080.88 622.467C1081.02 610.833 1067.75 608.429 1064.17 612.362C1052.03 651.91 1057.65 644.18 1026.82 651.684Z" fill="#735BA5"/>
<path d="M1041.47 655.577C1029 665.737 1038.27 692.385 1035.89 695.077C1076.45 694.3 1104.01 688.959 1113.57 643.272C1117.07 626.541 1101.96 616.458 1096.68 633.133C1092.5 682.033 1060.71 665.9 1041.47 655.577Z" fill="#8280DC"/>
<path d="M1014.94 661.525C1015.82 655.128 1019.5 649.036 1026.05 649.984C1035.45 651.346 1049.5 657.366 1063.53 663.949C1079.46 671.42 1076.67 685.635 1058.97 686.885C1054.98 687.167 1051.23 688.776 1047.93 691.013C1046.85 691.749 1045.82 692.381 1044.83 692.922C1028.67 701.755 1012.47 679.363 1014.94 661.525Z" fill="#8280DC"/>
<path d="M944.405 640.094L957.063 633.16C956.059 643.998 960.158 643.372 967.518 652.211C966.467 659.728 963.611 661.139 954.859 659.145C948.335 652.155 943.198 652.345 944.405 640.094Z" fill="#FFDBBA"/>
<path d="M1060.98 605.333C1069.34 601.151 1074.09 598.193 1078.22 593.745C1082.21 589.448 1089.47 589.032 1093.12 593.734C1094.75 595.833 1095.29 598.551 1094.31 600.946C1090.24 610.917 1084.07 615.494 1070.92 620.92C1056.18 627.004 1049.98 610.837 1060.98 605.333Z" fill="#F3CECA"/>
<path d="M1059.79 603.224C1067.26 599.698 1071.65 597.113 1075.32 593.334C1079.37 589.157 1086.58 588.643 1090.3 593.317C1091.92 595.354 1092.52 597.989 1091.64 600.337C1088.12 609.694 1082.36 613.854 1069.97 618.572C1056.03 623.884 1049.42 608.114 1059.79 603.224Z" fill="#FF8C73"/>
<path d="M1105.43 620.596C1113.18 621.621 1118.2 621.856 1123.08 620.853C1129.42 619.549 1136.37 622.919 1136.92 629.208C1137.15 631.861 1136.17 634.514 1134.02 636.151C1125.84 642.394 1118.62 642.811 1105.5 639.999C1090.68 636.821 1093.88 619.068 1105.43 620.596Z" fill="#F3CECA"/>
<path d="M1106.13 618.829C1112.78 619.896 1117.24 620.244 1121.43 619.552C1127.73 618.51 1134.68 621.748 1135.3 628.05C1135.55 630.625 1134.68 633.215 1132.68 634.848C1125.28 640.882 1118.64 641.168 1106.55 638.161C1092.84 634.751 1095.47 617.118 1106.13 618.829Z" fill="#FF8C73"/>
<rect x="592.81" y="533.684" width="13.5987" height="145.97" fill="#735BA5"/>
<path d="M578.475 533.684H596.77L599.609 540.172H569.012L578.475 533.684Z" fill="#735BA5"/>
<rect x="569.012" y="540.172" width="30.597" height="139.505" fill="#8280DC"/>
<path d="M596.209 555.946C596.209 561.568 591.262 566.126 585.16 566.126C579.058 566.126 574.111 561.568 574.111 555.946C574.111 550.323 579.058 545.038 585.16 545.038C591.262 545.038 596.209 550.323 596.209 555.946Z" fill="#F2F2F2"/>
<rect x="584.31" y="562.882" width="1.69989" height="1.62213" fill="#C2C2E1"/>
<path d="M584.31 546.66H585.684V548.282H584.31V546.66Z" fill="#C2C2E1"/>
<path d="M575.811 554.771V556.312H577.51V554.771H575.811Z" fill="#C2C2E1"/>
<path d="M592.81 556.335V554.771H594.509V556.335H592.81Z" fill="#C2C2E1"/>
<path d="M705.926 601.395H728.178L740.695 642.367H738.185H694.8L705.926 601.395Z" fill="#D8D8D8"/>
<path d="M705.923 600.952H728.067L738.231 642.367H697.578L705.923 600.952Z" fill="#F0FFFD"/>
<path d="M709.292 605.451L713.309 605.903L708.516 637.593L704.472 637.72L709.292 605.451Z" fill="#FF8C73"/>
<path d="M725.396 605.475L724.673 609.229L709.051 609.358L709.293 605.492L725.396 605.475Z" fill="#FF8C73"/>
<rect width="3.62704" height="13.7251" transform="matrix(0.00835351 0.999965 -0.999971 0.00760755 722.685 618.767)" fill="#FF8C73"/>
<path d="M730.63 633.945L731.837 637.79L704.462 637.773L705.311 633.896L730.63 633.945Z" fill="#FF8C73"/>
<path d="M710.801 598.568H724.125L727.626 600.955H706.596L710.801 598.568Z" fill="#FF8C73"/>
<path d="M274.342 691.562C276.521 700.736 282.74 707.21 288.234 706.021C293.727 704.833 296.414 696.433 294.235 687.259C292.056 678.085 285.837 671.611 280.343 672.799C274.85 673.987 272.163 682.387 274.342 691.562Z" fill="#F3CECA"/>
<path d="M291.73 705.629C298.3 705.798 303.717 702.668 303.831 698.638C303.945 694.608 298.712 691.204 292.143 691.035C285.573 690.866 280.156 693.996 280.042 698.027C279.928 702.057 285.161 705.46 291.73 705.629Z" fill="#F3CECA"/>
<path d="M504.436 675.131C504.414 672.445 506.438 670.077 509.369 669.361L519.479 666.89C524.58 665.643 529.661 668.897 529.905 673.568C530.126 677.803 526.23 681.323 521.435 681.22L510.957 680.995C507.347 680.917 504.463 678.324 504.436 675.131Z" fill="#857895"/>
<path d="M506.641 677.952C507.061 677.189 508.103 676.873 509.116 677.202L516.967 679.751C518.681 680.308 519.65 681.975 519.035 683.312C518.44 684.607 516.608 685.036 515.055 684.242L507.714 680.494C506.644 679.948 506.165 678.815 506.641 677.952Z" fill="#857895"/>
<path d="M277.741 689.938C279.92 699.113 286.14 705.587 291.633 704.398C297.126 703.21 299.813 694.81 297.635 685.636C295.456 676.462 289.236 669.988 283.743 671.176C278.249 672.364 275.562 680.764 277.741 689.938Z" fill="#FF8C73"/>
<path d="M295.033 683.096C285.801 684.721 279.214 690.681 280.321 696.408C281.428 702.134 289.809 705.459 299.041 703.834C308.274 702.209 314.86 696.249 313.754 690.523C312.647 684.796 304.265 681.471 295.033 683.096Z" fill="#FF8C73"/>
<path d="M289.022 674.351C291.349 673.361 297.368 676.447 301.742 679.028C304.504 680.657 304.712 684.527 302.319 687.347C299.505 690.663 294.917 691.761 291.765 689.712C287.881 687.189 283.354 683.893 283.016 682.047C282.417 678.772 285.189 675.983 289.022 674.351Z" fill="#282A4B"/>
<path d="M298.45 676.266C306.317 676.643 342.472 701.851 359.482 714.008C364.388 717.515 365.311 724.062 361.589 728.474C356.896 734.039 348.318 735.015 342.101 730.633C325.175 718.701 294.396 696.499 289.584 689.517C282.89 679.804 288.077 675.77 298.45 676.266Z" fill="#735BA5"/>
<path d="M342.078 666.233C342.531 660.058 348.106 655.286 354.788 655.351C363.887 655.44 371.021 662.623 370.357 671.026L366.423 720.813C365.342 734.491 346.695 739.818 337.467 729.086L342.078 666.233Z" fill="#735BA5"/>
<path d="M410.163 729.681C414.335 728.665 418.551 731.662 419.096 736.031L420.688 748.789C421.304 753.722 418.094 758.18 413.314 759.03C406.623 760.221 400.737 753.928 402.273 747.227L405.111 734.845C405.699 732.279 407.639 730.296 410.163 729.681Z" fill="#8280DC"/>
<path d="M236.945 709.404C239.124 718.578 245.344 725.052 250.837 723.864C256.331 722.676 259.018 714.276 256.839 705.102C254.66 695.927 248.44 689.453 242.947 690.642C237.453 691.83 234.766 700.23 236.945 709.404Z" fill="#F3CECA"/>
<path d="M250.934 723.473C257.504 723.642 262.921 720.512 263.035 716.482C263.149 712.452 257.916 709.048 251.347 708.879C244.778 708.71 239.36 711.84 239.246 715.87C239.132 719.9 244.365 723.304 250.934 723.473Z" fill="#F3CECA"/>
<path d="M238.644 709.404C240.823 718.578 247.043 725.052 252.536 723.864C258.03 722.676 260.717 714.276 258.538 705.102C256.359 695.927 250.139 689.453 244.646 690.642C239.153 691.83 236.466 700.23 238.644 709.404Z" fill="#FF8C73"/>
<path d="M254.335 723.473C260.904 723.642 266.322 720.512 266.436 716.482C266.549 712.452 261.316 709.048 254.747 708.879C248.178 708.71 242.76 711.84 242.646 715.87C242.533 719.9 247.766 723.304 254.335 723.473Z" fill="#FF8C73"/>
<rect width="32.9955" height="13.3844" transform="matrix(0.609706 0.792628 -0.819032 0.573748 402.949 709.805)" fill="#8280DC"/>
<path d="M416.545 732.23C417.518 731.582 418.752 731.595 419.451 732.261L426.888 739.356C428.055 740.469 427.725 742.425 426.173 743.599C424.619 744.775 422.501 744.669 421.578 743.371L415.698 735.098C415.084 734.233 415.462 732.952 416.545 732.23Z" fill="#8280DC"/>
<path d="M489.255 658.589L521.198 669.693L515.286 680.112L484.019 672.307L489.255 658.589Z" fill="#8280DC"/>
<path d="M378.859 648.358L402.392 644.417C398.251 681.008 395.81 696.62 416.158 721.937C412.577 729.431 409.897 732.564 398.139 728.297C379.701 700.466 375.819 682.859 378.859 648.358Z" fill="#FF8C73"/>
<path d="M417.251 637.877L411.958 660.36C449.024 665.516 458.108 670.282 489.517 676.11C497.288 672.913 500.604 670.44 496.946 659.003C463.079 649.192 451.506 644.35 417.251 637.877Z" fill="#FF8C73"/>
<path d="M249.611 698.524C251.561 696.982 258.157 698.381 263.088 699.735C266.258 700.605 267.589 704.3 266.076 707.637C264.3 711.553 260.157 713.776 256.494 712.594C252.06 711.163 246.833 709.166 245.992 707.484C244.492 704.482 246.377 701.082 249.611 698.524Z" fill="#282A4B"/>
<path d="M315.142 673.376C315.971 660.74 323.684 649.449 335.455 643.641C351.62 635.664 370.683 639.754 368.998 657.066C366.902 678.607 355.592 707.869 345.921 730.869C340.309 744.216 319.509 746.316 311.143 734.362L315.142 673.376Z" fill="#8280DC"/>
<path d="M327.096 670.033C321.712 660.85 322.047 649.058 330.591 642.655C351.185 627.222 379.918 625.645 408.461 632.851C425.153 637.064 428.112 647.642 426.665 657.518C424.658 671.219 409.492 677.279 395.169 676.953C387.075 676.768 381.233 677.092 376.58 678.186C357.578 682.654 336.814 686.606 327.096 670.033Z" fill="#FF8C73"/>
<path d="M403.12 673.133C417.643 674.001 430.247 662.019 431.273 646.371C432.299 630.724 421.358 617.336 406.835 616.469C392.312 615.601 379.707 627.583 378.681 643.231C377.655 658.878 388.597 672.266 403.12 673.133Z" fill="#8280DC"/>
<path d="M259.562 699.372C267.228 697.429 308.05 711.962 327.596 719.201C333.344 721.33 335.969 727.704 333.451 733.256C330.281 740.249 322.109 743.724 314.85 741.09C295.487 734.061 260.581 720.925 254.243 715.346C245.382 707.547 249.408 701.946 259.562 699.372Z" fill="#8280DC"/>
<path d="M431.09 639.232C425.387 645.705 410.311 640.831 403.486 637.584C401.948 636.446 397.866 634.738 393.847 637.008C388.822 639.846 399.133 643.6 397.876 649.352C396.619 655.105 387.795 668.922 380.436 653.69C373.077 638.458 382.66 626.478 392.477 617.651C402.293 608.824 417.949 611.552 425.982 616.514C431.24 616.828 426.567 607.583 426.743 604.904C427.382 595.152 433.169 607.529 438.543 612.781C443.917 618.033 438.219 631.141 431.09 639.232Z" fill="#0C2264"/>
<path d="M505.871 674.965L536.714 674.811L499.956 712.12H463.621L505.871 674.965Z" fill="#FFEFE7"/>
<path d="M505.871 674.965L536.714 674.811L499.956 712.12H463.621L505.871 674.965Z" fill="#FFEFE7"/>
<path d="M513.368 678.055L531.616 678.055L498.842 710.498H478.921L513.368 678.055Z" fill="#8280DC"/>
<path d="M513.368 678.055L531.616 678.055L498.842 710.498H478.921L513.368 678.055Z" fill="#8280DC"/>
<path d="M489.119 671.115L526.128 640.745L536.459 675.018L499.872 712.12L489.119 671.115Z" fill="#FFEFE7"/>
<path d="M854.585 625.173L908.98 622.901V661.833H854.585V625.173Z" fill="#8280DC"/>
<rect width="10.083" height="34.1734" transform="matrix(0.0175634 0.999846 -0.999872 0.0159953 910.669 650.207)" fill="#FF8C73"/>
<path d="M866.535 655.32L876.785 650.578L876.682 660.261L866.535 655.32Z" fill="#CDDCF4"/>
<path d="M942.524 669.787C951.262 679.241 959.388 673.632 943.055 680.483C915.251 698.247 909.737 677.934 888.388 657.963C884.335 651.13 890.83 648.808 894.97 651.067C915.427 670.252 920.389 688.803 942.524 669.787Z" fill="#FFDBBA"/>
<path d="M953.332 649.199L965.069 655.753L950.842 678.955C944.58 678.912 941.889 677.658 939.105 672.401L953.332 649.199Z" fill="#735BA5"/>
<path d="M1034.82 667.617C1031.79 681.827 1020.21 693.528 1004.91 693.795C974.827 694.321 945.646 684.164 943.632 657.442C943.51 655.823 943.932 654.205 944.711 652.764C948.078 646.538 957.172 645.769 964.164 648.055C981.208 653.629 1000.31 640.984 1018.21 639.91C1032.27 639.066 1037.62 654.535 1034.82 667.617Z" fill="#ABB8F9"/>
<path d="M973.341 635.037C970.552 648.091 953.516 657.881 941.558 655.555C929.599 653.229 927.247 639.667 930.036 626.612C932.824 613.557 944.779 604.861 956.737 607.187C968.696 609.513 976.129 621.982 973.341 635.037Z" fill="#FFDBBA"/>
<path d="M974.234 676.691C990.797 679.694 986.523 681.25 978.08 690.443C951.809 710.293 935.442 712.997 904.051 706.482C894.554 702.845 896.965 696.009 903.167 695.396C932.034 702.733 948.389 697.04 974.234 676.691Z" fill="#FFDBBA"/>
<path d="M982.23 665.096C991.078 665.801 992.633 668.6 993.594 674.871L975.915 693.587C969.42 691.761 966.783 689.764 964.552 683.812L982.23 665.096Z" fill="#735BA5"/>
<path d="M929.046 611.277C933.162 602.283 944.95 601.025 950.33 601.52C976.544 591.795 986.219 617.546 987.78 631.637L977.863 686.622L949.189 681.043C951.101 668.29 955.528 642.238 957.944 640.061C960.963 637.34 956.307 633.456 953.042 634.475C949.777 635.494 950.455 632.317 950.189 629.287C949.922 626.257 945.481 631.35 944.018 631.065L929.389 628.219C926.17 627.593 923.902 622.519 929.046 611.277Z" fill="#FF8C73"/>
<path d="M761.872 643.727L832.178 639.742L873.25 671.58L786.465 673.27L761.872 643.727Z" fill="#ABB8F9"/>
<path d="M1364.83 503.598C1362.03 503.432 1248.88 509.652 1033.89 510.049C1022.51 505.087 1023.5 484.246 1033.89 473.33C1050.72 455.655 1070.51 467.872 1082.89 476.307C1076.78 470.849 1065.52 435.643 1089.32 412.793C1112.58 390.464 1155.47 403.531 1163.06 421.228C1164.05 409.485 1157.22 367.341 1195.23 362.181C1233.24 357.02 1258.58 401.877 1247.69 421.228C1253.63 413.124 1267.31 393.444 1292.23 408.824C1317.97 424.702 1301.31 452.82 1292.23 459.436C1296.03 456.789 1310.64 453.878 1338.76 463.405C1366.87 472.933 1376.54 494.17 1364.83 503.598Z" fill="url(#paint6_linear)"/>
<path d="M453.077 365.239C450.543 365.069 348.335 371.484 154.131 371.893C143.849 366.775 144.743 345.279 154.131 334.02C169.332 315.789 187.214 328.39 198.391 337.09C192.877 331.46 182.7 295.148 204.202 271.579C225.214 248.548 263.96 262.025 270.815 280.28C271.709 268.167 265.539 224.698 299.874 219.375C334.208 214.053 357.098 260.319 347.262 280.28C352.627 271.92 364.981 251.621 387.498 267.485C410.745 283.863 395.694 312.865 387.498 319.689C390.925 316.959 404.129 313.957 429.522 323.783C454.915 333.61 463.657 355.515 453.077 365.239Z" fill="url(#paint7_linear)"/>
<path opacity="0.6" d="M1010.52 199.859C1203.01 181.767 1486.36 380.899 1466.34 656.394" stroke="url(#paint8_diamond)" stroke-opacity="0.7" stroke-width="9"/>
<path d="M1203.41 260.878C1200.42 257.672 1189.05 236.976 1165.75 211.968L1227.18 218.089L1196.87 228.181L1203.41 260.878Z" fill="white"/>
<defs>
<filter id="filter0_f" x="519.615" y="683.898" width="380.966" height="87.2641" filterUnits="userSpaceOnUse" color-interpolation-filters="sRGB">
<feFlood flood-opacity="0" result="BackgroundImageFix"/>
<feBlend mode="normal" in="SourceGraphic" in2="BackgroundImageFix" result="shape"/>
<feGaussianBlur stdDeviation="6" result="effect1_foregroundBlur"/>
</filter>
<linearGradient id="paint0_linear" x1="1079.04" y1="956.85" x2="1102.53" y2="3.59425" gradientUnits="userSpaceOnUse">
<stop stop-color="#E6EFFF"/>
<stop offset="1" stop-color="#4887E3"/>
</linearGradient>
<linearGradient id="paint1_linear" x1="739.283" y1="692.97" x2="747.596" y2="196.19" gradientUnits="userSpaceOnUse">
<stop stop-color="#FFDBBA"/>
<stop offset="1" stop-color="#FF8C73"/>
</linearGradient>
<linearGradient id="paint2_linear" x1="553.352" y1="2477.39" x2="557.313" y2="2440.01" gradientUnits="userSpaceOnUse">
<stop stop-color="#91E9EE"/>
<stop offset="1" stop-color="#ABB8F9"/>
</linearGradient>
<linearGradient id="paint3_linear" x1="548.613" y1="740.508" x2="888.578" y2="744.07" gradientUnits="userSpaceOnUse">
<stop stop-color="#91E9EE"/>
<stop offset="1" stop-color="#ABB8F9"/>
</linearGradient>
<linearGradient id="paint4_linear" x1="574.026" y1="630.853" x2="574.025" y2="741.341" gradientUnits="userSpaceOnUse">
<stop offset="0.0772481" stop-color="#ABB8F9"/>
<stop offset="0.950276" stop-color="#83CCFD"/>
</linearGradient>
<linearGradient id="paint5_linear" x1="505.48" y1="469.666" x2="529.916" y2="469.666" gradientUnits="userSpaceOnUse">
<stop stop-color="#AEAEFF"/>
<stop offset="0.974846" stop-color="#FF8A8B" stop-opacity="0.82"/>
</linearGradient>
<linearGradient id="paint6_linear" x1="1197.71" y1="361.771" x2="1196.99" y2="536.307" gradientUnits="userSpaceOnUse">
<stop stop-color="white"/>
<stop offset="1" stop-color="white" stop-opacity="0"/>
</linearGradient>
<linearGradient id="paint7_linear" x1="302.115" y1="218.952" x2="301.261" y2="398.976" gradientUnits="userSpaceOnUse">
<stop stop-color="white"/>
<stop offset="1" stop-color="white" stop-opacity="0"/>
</linearGradient>
<radialGradient id="paint8_diamond" cx="0" cy="0" r="1" gradientUnits="userSpaceOnUse" gradientTransform="translate(1372.58 470.022) rotate(45.8508) scale(395.672 5001.35)">
<stop stop-color="white"/>
<stop offset="0.712707" stop-color="white" stop-opacity="0"/>
</radialGradient>
</defs>
</svg>
